<svg xmlns="http://www.w3.org/2000/svg" width="25" height="25" viewBox="0 0 25 25">
  <g id="グループ_28" data-name="グループ 28" transform="translate(-1170 552)">
    <rect id="長方形_28" data-name="長方形 28" width="25" height="25" transform="translate(1170 -552)" fill="none"/>
    <path id="パス_10" data-name="パス 10" d="M303.044,369.744a1.078,1.078,0,0,0-1.078-1.078s-1.308.12-3.228.216a17.194,17.194,0,0,1-4.959-.216c-1.426-.618,2.48-2.469,2.48-2.469a1.083,1.083,0,1,0-1.531-1.531l-4.312,4.313a1.116,1.116,0,0,0,0,1.531l4.313,4.313a1.083,1.083,0,0,0,1.531-1.531l-2.475-2.469h8.183A1.078,1.078,0,0,0,303.044,369.744Zm1.082-10.781H293.345a3.234,3.234,0,0,0-3.234,3.234v3.234a1.078,1.078,0,0,0,2.156,0V362.2a1.079,1.079,0,0,1,1.078-1.078h10.781A1.079,1.079,0,0,1,305.2,362.2v15.094a1.079,1.079,0,0,1-1.078,1.078H293.345a1.079,1.079,0,0,1-1.078-1.078v-3.234a1.078,1.078,0,0,0-2.156,0v3.234a3.234,3.234,0,0,0,3.234,3.234h10.781a3.234,3.234,0,0,0,3.234-3.234V362.2A3.234,3.234,0,0,0,304.127,358.963Z" transform="translate(883.889 -909.744)" fill="#262727"/>
  </g>
</svg>
