<svg xmlns="http://www.w3.org/2000/svg" width="25" height="25" viewBox="0 0 25 25">
  <g id="グループ_29" data-name="グループ 29" transform="translate(-1000 -494)">
    <rect id="長方形_40" data-name="長方形 40" width="25" height="25" transform="translate(1000 494)" fill="none"/>
    <path id="icons8-news" d="M2,3V18a3.015,3.015,0,0,0,3,3H19a3.015,3.015,0,0,0,3-3V7H20V18a1,1,0,0,1-2,0V3ZM4,5H16V18c0,.388.279.658.416,1H5a.984.984,0,0,1-1-1ZM6,7v3h8V7Zm0,5v2h8V12Zm0,4v2h8V16Z" transform="translate(1000 494)" fill="#262727"/>
  </g>
</svg>
