<svg xmlns="http://www.w3.org/2000/svg" width="25" height="25" viewBox="0 0 25 25">
  <g id="グループ_24" data-name="グループ 24" transform="translate(-987 552)">
    <rect id="長方形_32" data-name="長方形 32" width="25" height="25" transform="translate(987 -552)" fill="none"/>
    <path id="パス_7" data-name="パス 7" d="M4.909,4.886A4.386,4.386,0,1,0,9.295.5,4.391,4.391,0,0,0,4.909,4.886Zm4.386-2.4a2.4,2.4,0,1,1-2.4,2.4A2.4,2.4,0,0,1,9.295,2.489ZM1.671,17.406v1.326a2.323,2.323,0,0,0,2.32,2.32H14.6a2.323,2.323,0,0,0,2.32-2.32V17.406a7.624,7.624,0,0,0-15.249,0Zm7.624-5.635a5.642,5.642,0,0,1,5.636,5.635v1.326a.332.332,0,0,1-.331.331H3.991a.332.332,0,0,1-.331-.331V17.406A5.642,5.642,0,0,1,9.295,11.771Zm9.31-1.426V9.273h1.072a.994.994,0,1,0,0-1.989H18.6V6.212a.994.994,0,1,0-1.989,0V7.284H15.545a.994.994,0,0,0,0,1.989h1.071v1.072a.994.994,0,1,0,1.989,0Z" transform="translate(988.329 -550.776)" fill="#333"/>
  </g>
</svg>
