<svg xmlns="http://www.w3.org/2000/svg" width="25" height="25" viewBox="0 0 25 25">
  <g id="グループ_27" data-name="グループ 27" transform="translate(-1115 552)">
    <rect id="長方形_29" data-name="長方形 29" width="25" height="25" transform="translate(1115 -552)" fill="none"/>
    <path id="パス_11" data-name="パス 11" d="M18.363,2H4.887A2.887,2.887,0,0,0,2,4.888V18.363A2.887,2.887,0,0,0,4.887,21.25H18.363a2.887,2.887,0,0,0,2.887-2.887V4.887A2.887,2.887,0,0,0,18.363,2ZM9.7,3.925h3.85V6.938l-1.4-.963a.963.963,0,0,0-1.059,0l-1.4.963Zm9.625,14.438a.963.963,0,0,1-.962.962H4.887a.963.963,0,0,1-.962-.962V4.887a.962.962,0,0,1,.962-.962H7.775V8.737a.95.95,0,0,0,1.473.8l2.377-1.569,2.358,1.569a.962.962,0,0,0,1.492-.8V3.925h2.888a.963.963,0,0,1,.962.962Z" transform="translate(1115.375 -551.625)" fill="#333"/>
  </g>
</svg>
