<svg xmlns="http://www.w3.org/2000/svg" width="25" height="25" viewBox="0 0 25 25">
  <g id="グループ_26" data-name="グループ 26" transform="translate(-1069 552)">
    <rect id="長方形_30" data-name="長方形 30" width="25" height="25" transform="translate(1069 -552)" fill="none"/>
    <path id="パス_8" data-name="パス 8" d="M14.239,16.252H9.761a3.975,3.975,0,1,0,0,2.226h4.478a3.975,3.975,0,1,0,0-2.226ZM5.965,19.114a1.749,1.749,0,1,1,1.749-1.749A1.75,1.75,0,0,1,5.965,19.114Zm13.82-1.749a1.749,1.749,0,1,1-1.749-1.749A1.75,1.75,0,0,1,19.784,17.365ZM1.613,12.576H22.387a1.113,1.113,0,0,0,0-2.226H20.212l-1.6-4.636a1.113,1.113,0,0,0-1.052-.749H6.442a1.113,1.113,0,0,0-1.052.749l-1.6,4.636H1.613a1.113,1.113,0,0,0,0,2.226ZM7.235,7.19h9.53l1.092,3.16H6.143Z" transform="translate(1069 -553.152)" fill="#333"/>
  </g>
</svg>
