<svg xmlns="http://www.w3.org/2000/svg" width="25" height="25" viewBox="0 0 25 25">
  <g id="グループ_23" data-name="グループ 23" transform="translate(-946 552)">
    <rect id="長方形_33" data-name="長方形 33" width="25" height="25" transform="translate(946 -552)" fill="none"/>
    <path id="パス_4" data-name="パス 4" d="M291.623,415.265a4.482,4.482,0,1,0,4.482-4.482h0A4.485,4.485,0,0,0,291.623,415.265Zm4.481-2.45a2.45,2.45,0,0,1,0,4.9h0a2.578,2.578,0,0,1-2.19-1.353,2.132,2.132,0,0,1-.259-1.1A2.452,2.452,0,0,1,296.1,412.815Zm-7.789,15.241v1.355a2.375,2.375,0,0,0,2.37,2.372h10.839a2.374,2.374,0,0,0,2.371-2.371v-1.356a7.79,7.79,0,0,0-15.58,0Zm7.79-5.758a5.764,5.764,0,0,1,5.758,5.758v1.355a.339.339,0,0,1-.339.339H290.685a.339.339,0,0,1-.339-.339h0v-1.355A5.764,5.764,0,0,1,296.1,422.3Z" transform="translate(662.685 -961.283)" fill="#333"/>
  </g>
</svg>
