<svg xmlns="http://www.w3.org/2000/svg" xmlns:xlink="http://www.w3.org/1999/xlink" width="25" height="25" viewBox="0 0 25 25">
  <defs>
    <clipPath id="clip-path">
      <rect id="長方形_84" data-name="長方形 84" width="25" height="25" transform="translate(860 -204)" fill="#fff" stroke="#707070" stroke-width="1" opacity="0.4"/>
    </clipPath>
    <clipPath id="clip-path-2">
      <rect id="長方形_56" data-name="長方形 56" width="19" height="20.552" transform="translate(0 0)" fill="none"/>
    </clipPath>
  </defs>
  <g id="マスクグループ_44" data-name="マスクグループ 44" transform="translate(-860 204)" clip-path="url(#clip-path)">
    <g id="グループ_78" data-name="グループ 78" transform="translate(1 1)">
      <g id="グループ_56" data-name="グループ 56" transform="translate(863 -203)">
        <g id="グループ_55" data-name="グループ 55" clip-path="url(#clip-path-2)">
          <path id="パス_358" data-name="パス 358" d="M3.238,4.386A4.386,4.386,0,1,0,7.624,0,4.386,4.386,0,0,0,3.238,4.386" fill="#58c1df"/>
          <path id="パス_359" data-name="パス 359" d="M7.624,1.986a2.4,2.4,0,1,1-2.4,2.4,2.4,2.4,0,0,1,2.4-2.4Z" fill="#fff"/>
          <path id="パス_360" data-name="パス 360" d="M0,16.906v1.326a2.323,2.323,0,0,0,2.32,2.32H12.929a2.323,2.323,0,0,0,2.32-2.32V16.906A7.624,7.624,0,1,0,0,16.906" fill="#333"/>
          <path id="パス_361" data-name="パス 361" d="M7.624,11.271a5.642,5.642,0,0,1,5.636,5.635v1.326a.332.332,0,0,1-.331.331H2.32a.332.332,0,0,1-.331-.331V16.906a5.642,5.642,0,0,1,5.635-5.635" fill="#fff"/>
          <path id="パス_362" data-name="パス 362" d="M16.934,9.845V8.773h1.072a.995.995,0,0,0,0-1.989H16.929V5.712a.995.995,0,1,0-1.989,0V6.784H13.874a.995.995,0,1,0,0,1.989h1.071V9.845a.995.995,0,1,0,1.989,0Z" fill="#333"/>
        </g>
      </g>
    </g>
  </g>
</svg>
