<svg xmlns="http://www.w3.org/2000/svg" xmlns:xlink="http://www.w3.org/1999/xlink" width="25" height="25" viewBox="0 0 25 25">
  <defs>
    <clipPath id="clip-path">
      <rect id="長方形_81" data-name="長方形 81" width="25" height="25" transform="translate(589 -204)" fill="#fff" stroke="#707070" stroke-width="1" opacity="0.4"/>
    </clipPath>
    <clipPath id="clip-path-2">
      <rect id="長方形_66" data-name="長方形 66" width="20" height="18.544" fill="#333"/>
    </clipPath>
  </defs>
  <g id="マスクグループ_47" data-name="マスクグループ 47" transform="translate(-589 204)" clip-path="url(#clip-path)">
    <g id="グループ_75" data-name="グループ 75" transform="translate(0.204 1.659)">
      <rect id="長方形_49" data-name="長方形 49" width="23.735" height="25.407" transform="translate(589.796 -209.659)" fill="none"/>
      <g id="グループ_72" data-name="グループ 72" transform="translate(591 -201)">
        <g id="グループ_71" data-name="グループ 71" transform="translate(0 0)" clip-path="url(#clip-path-2)">
          <path id="パス_395" data-name="パス 395" d="M19.868,8.9l-4.08-3.7V1.9H13.861L13.84,3.4,10.305.122A.437.437,0,0,0,10,0a.432.432,0,0,0-.3.118L.136,8.9.13,8.908A.443.443,0,0,0,0,9.22V10.6a.439.439,0,0,0,.438.44H1.972V18.1a.439.439,0,0,0,.438.44h6.21V12.281H11.4v6.06l.005.182v.02h6.184a.439.439,0,0,0,.438-.44V11.042h1.532A.439.439,0,0,0,20,10.6V9.22a.445.445,0,0,0-.132-.315m-3.388.584v7.5H12.951V11.167a.44.44,0,0,0-.438-.441h-5a.44.44,0,0,0-.438.441v5.823H3.521v-7.5H1.775L10,1.98l8.226,7.509Z" transform="translate(0 0)" fill="#333"/>
        </g>
      </g>
      <g id="楕円形_2" data-name="楕円形 2" transform="translate(606 -204)" fill="#58c1df" stroke="#58c1df" stroke-width="1">
        <circle cx="2" cy="2" r="2" stroke="none"/>
        <circle cx="2" cy="2" r="1.5" fill="none"/>
      </g>
    </g>
  </g>
</svg>
