<svg xmlns="http://www.w3.org/2000/svg" xmlns:xlink="http://www.w3.org/1999/xlink" width="25" height="25" viewBox="0 0 25 25">
  <defs>
    <clipPath id="clip-path">
      <rect id="長方形_83" data-name="長方形 83" width="25" height="25" transform="translate(767 -204)" fill="#fff" stroke="#707070" stroke-width="1" opacity="0.4"/>
    </clipPath>
    <clipPath id="clip-path-2">
      <rect id="長方形_51" data-name="長方形 51" width="19.672" height="19.678" fill="none"/>
    </clipPath>
  </defs>
  <g id="マスクグループ_45" data-name="マスクグループ 45" transform="translate(-767 204)" clip-path="url(#clip-path)">
    <g id="グループ_77" data-name="グループ 77" transform="translate(4.174 2)">
      <g id="グループ_44" data-name="グループ 44" transform="translate(765.826 -203)">
        <g id="マスクグループ_43" data-name="マスクグループ 43" transform="translate(0 0)" clip-path="url(#clip-path-2)">
          <path id="パス_336" data-name="パス 336" d="M3.292,15.744H7.463a.981.981,0,0,0,.7-.285l6.807-6.817,2.793-2.734a.985.985,0,0,0,.005-1.392l-.005-.005L13.591.291A.982.982,0,0,0,12.2.285l-.006.006L9.42,3.075,2.594,9.891a.983.983,0,0,0-.285.7V14.76a.984.984,0,0,0,.983.983" transform="translate(-0.341 0)" fill="#333"/>
          <rect id="長方形_50" data-name="長方形 50" width="1.975" height="3.936" transform="translate(11.154 3.773) rotate(-45)" fill="#fff"/>
          <path id="パス_337" data-name="パス 337" d="M4.617,11.888,10.45,6.055l2.783,2.784L7.4,14.671H4.617Z" transform="translate(-0.683 -0.895)" fill="#fff"/>
          <path id="パス_338" data-name="パス 338" d="M18.689,20.783H.984a.983.983,0,1,0,0,1.967h17.7a.983.983,0,0,0,0-1.967" transform="translate(0 -3.073)" fill="#58c1df"/>
        </g>
      </g>
    </g>
  </g>
</svg>
