<svg id="グループ_28" data-name="グループ 28" xmlns="http://www.w3.org/2000/svg" width="294.667" height="220.059" viewBox="0 0 294.667 220.059">
  <path id="パス_166" data-name="パス 166" d="M294.667,216.3c0-15.271-17.244-27.653-38.553-27.727-.022-15.3-17.358-27.7-38.739-27.7-13.141,0-24.745,4.687-31.749,11.848-3.063-13.125-18.995-23.13-38.2-23.13s-35.137,10-38.2,23.129c-7-7.161-18.608-11.847-31.747-11.847-21.4,0-38.74,12.414-38.74,27.729,0,.01,0,.023,0,.034h0c-21.4,0-38.74,12.414-38.74,27.73s17.344,27.73,38.74,27.73h0c0,15.314,17.344,27.729,38.74,27.729,13.139,0,24.743-4.687,31.747-11.847,3.064,13.124,19,23.129,38.2,23.129s35.136-10.006,38.2-23.13c7,7.161,18.608,11.848,31.749,11.848,21.395,0,38.739-12.415,38.739-27.73,0-.024,0-.047,0-.07,21.311-.072,38.555-12.457,38.555-27.727" transform="translate(0 -63.047)" fill="#fff"/>
  <path id="パス_167" data-name="パス 167" d="M129.422,261.353l3.995,12.879L142,261.353h7.055l-4.741,26.878h-6.757l2.688-15.156L134.5,282.11h-4.89l-2.539-9.034-2.688,15.156h-6.72l4.741-26.878Z" transform="translate(-49.591 -110.152)" fill="#58c1df"/>
  <path id="パス_168" data-name="パス 168" d="M187.546,288.231l.223-5.861h-6.234l-1.829,5.861h-7.129l9.593-26.878h12.319l.149,26.878Zm-1.531-20.345-2.949,9.482h4.89l.41-9.482Z" transform="translate(-72.735 -110.151)" fill="#58c1df"/>
  <path id="パス_169" data-name="パス 169" d="M233.329,280.056h-4.443l-1.456,8.176h-6.72l4.741-26.878h11.386q4.218,0,6.01,1.941a5.572,5.572,0,0,1,1.306,3.807,9.66,9.66,0,0,1-.149,1.643l-.746,4.218a7.9,7.9,0,0,1-3.285,5.1,10.933,10.933,0,0,1-6.644,2m1.157-12.879h-3.36l-1.232,7.056h3.323q3.061,0,3.546-2.725l.262-1.53a4.336,4.336,0,0,0,.075-.9,2.007,2.007,0,0,0-.56-1.232,2.574,2.574,0,0,0-2.053-.672" transform="translate(-93.022 -110.152)" fill="#58c1df"/>
  <path id="パス_170" data-name="パス 170" d="M276.914,288.231l.224-5.861H270.9l-1.829,5.861h-7.13l9.594-26.878h12.319l.149,26.878Zm-1.531-20.345-2.949,9.482h4.89l.411-9.482Z" transform="translate(-110.4 -110.151)" fill="#58c1df"/>
  <path id="パス_171" data-name="パス 171" d="M336.137,261.353,327.588,274.9l3.808,13.327H324.3l-2.8-9.855h-2.949l-1.755,9.855h-6.72l4.741-26.878h6.72l-1.979,11.2h2.389l7.093-11.2Z" transform="translate(-130.688 -110.152)" fill="#58c1df"/>
  <path id="パス_172" data-name="パス 172" d="M370.323,260.9q9,0,9,7.354a14.723,14.723,0,0,1-.261,2.65l-1.307,7.467q-.9,5.189-3.883,7.69t-8.4,2.5q-5.413,0-7.541-2.5a7.105,7.105,0,0,1-1.456-4.742,16.174,16.174,0,0,1,.3-2.949l1.307-7.467q1.754-10,12.244-10m-3.845,21.876a4.4,4.4,0,0,0,2.986-.971,6.018,6.018,0,0,0,1.568-3.583l1.269-7.167a9.152,9.152,0,0,0,.112-1.344q0-3.023-3.061-3.024-3.846.075-4.592,4.368l-1.269,7.167a12.216,12.216,0,0,0-.149,1.941q0,2.614,3.136,2.613" transform="translate(-150.242 -109.961)" fill="#58c1df"/>
  <path id="パス_173" data-name="パス 173" d="M323.629,9.855c-1.3-.767-2.385-1.7-4.14-1.221a4.085,4.085,0,0,0-2.9,3.387c-.149,1.3.326,2.7-.263,3.866a3.134,3.134,0,0,1-2.077,1.5c-1.447.364-2.441.288-3.758,1.076A4.609,4.609,0,0,1,313.216,23c-.012,1.919-.712,3.766-.929,5.673s.207,4.114,1.828,5.141c-2.235,3.064-.33,8.16,3.366,9.008-.227-.052,1.156,5.955,1.391,6.5a18.324,18.324,0,0,0,4.18,5.95,17.372,17.372,0,0,0,5.877,3.706c.681.252,2.687.428,3.049,1.128.568,1.1-1.114,2.267-1.991,2.531-1.346.4-2.84.266-4.112.863a5.205,5.205,0,0,0-2.623,3.541,15.424,15.424,0,0,0-.205,4.533,24.69,24.69,0,0,0-4.1,3.095,19.319,19.319,0,0,0-2.113,4.892c-2.442,6.994-3.676,14.32-5.1,21.567-.583,2.96-2.124,6.145-1.722,9.2a37.476,37.476,0,0,1,.415,7.738c-.121,1.907-1.195,20.849-2.327,20.95a238.514,238.514,0,0,1,55.77,1.538,116.536,116.536,0,0,1,.735-19.2c6.089-3.066,12.029-1.958,13.41-9.7.786-4.4-1.41-12.421-3.342-16.456-1.009-2.106-2.489-4.223-3.038-6.473-.632-2.595-1.015-5.237-1.728-7.818-1.388-5.026-3.489-9.973-7.146-13.781-3.762-3.917-9.064-6.566-11.406-11.465-2.811,1.721-2.524-5.108-2.332-6.786a4.733,4.733,0,0,1,1.554-3.16c1.122-.915,2.631-.61,3.857-1.316a22.527,22.527,0,0,0,4.594-4.027c3.9-4.171,5.475-9.947,6.913-15.476a10.96,10.96,0,0,0,.52-4.536,3.741,3.741,0,0,0-2.86-3.209l-3.829-5.731a16.128,16.128,0,0,0-3.775-4.393c-3.337-2.376-7.829-1.877-11.886-2.444-2.772-.388-5.441-1.312-8.192-1.822a13.087,13.087,0,0,0-8.219.677c-3.326,1.664-2.705,3.814-3.71,6.626-.119-.064-.235-.13-.35-.2" transform="translate(-129.849 -1.014)" fill="#fff"/>
  <path id="パス_174" data-name="パス 174" d="M329.81,22.912c-1.132,1.407-2.385,2.7-4.136,2.948-1.884.264-3.158-.089-4.134,1.927-.337.694-.548,6.019-1.324,6.152-2.222.624-3.388-1.045-4.639-2.47a9.719,9.719,0,0,0,3.016-8.094c-.141-1.006-.426-2.134.165-2.96s1.794-.967,2.4-1.766c.918-1.214-.084-3.074.588-4.439,1.129-2.3,6.5-2.174,8.6-3.854,2.886-2.309,5.095-5.99,9.359-3.48,1.605.945,2.707,2.647,4.415,3.391,2.145.935,4.6.127,6.861-.467,5.569-1.46,7.475,2.333,11.392,5.494.81.654,1.7,1.758,1.079,2.6-.38.517-1.193.625-1.464,1.206-.32.684.374,1.432,1.081,1.695a5.792,5.792,0,0,1,2.081.838c.738.69.662,1.859.532,2.859-.339,2.594-1.126,4.546-.179,7.146a11.782,11.782,0,0,1,1.159,4.627c-.085,1.374-1.453,3.646-3.137,3.032-.911-.332-.661-1.817-1.243-2.433-1.929-2.043-7.439-1.222-8.462,1.672,1.049-2.967-.732-4.695-2.414-6.79-1.275-1.588-1.626-3.894-3.789-4.6a15.264,15.264,0,0,0-3.138-.366,3.445,3.445,0,0,1-2.707-1.405c-.581-1-.263-2.3-.682-3.372a3.118,3.118,0,0,0-3.744-1.629,4.575,4.575,0,0,0-2.89,3.187l-2.914-2.811c-.58.663-1.14,1.431-1.733,2.168" transform="translate(-133.005 -2.543)" fill="#58c1df"/>
  <path id="パス_175" data-name="パス 175" d="M345.246,134.484a9.872,9.872,0,0,1-5.855.617c2.646.536-2.209,24.584-2.274,27.826-.084,4.25.205,8.621-.421,12.832.42-1.085,1.817-1.347,2.979-1.377a29.647,29.647,0,0,1,5.163.32c.476.068.7-21.965.546-23.911-.128-1.589-1.951-15.52-.138-16.308" transform="translate(-141.906 -56.68)" fill="#f9f3ae"/>
  <path id="パス_176" data-name="パス 176" d="M342.78,229.844a37.666,37.666,0,0,1-9.457-5.279,28.409,28.409,0,0,1-1.36,8.26,76.055,76.055,0,0,1,10.947-.049Z" transform="translate(-139.911 -94.646)" fill="#f9f3ae"/>
  <path id="パス_177" data-name="パス 177" d="M338.675,79.581a13.987,13.987,0,0,1-6.208-1.4c-6.526-3.165-8.761-9.867-9.487-14.933a68.8,68.8,0,0,1-.4-14.621.984.984,0,1,1,1.963.137,66.846,66.846,0,0,0,.38,14.2c.658,4.594,2.649,10.654,8.4,13.441a13.1,13.1,0,0,0,8.755.83.984.984,0,0,1,.4,1.927,18.778,18.778,0,0,1-3.8.412" transform="translate(-135.871 -20.11)" fill="#221714"/>
  <path id="パス_178" data-name="パス 178" d="M338.459,68.489a1.007,1.007,0,0,1-.175-.016l-.227-.04c-1.489-.264-3.526-.625-3.241-3.195a.984.984,0,1,1,1.956.217c-.072.653-.082.737,1.628,1.04l.232.041a.984.984,0,0,1-.173,1.953" transform="translate(-141.102 -27.127)" fill="#221714"/>
  <path id="パス_179" data-name="パス 179" d="M385.095,67.912a.984.984,0,0,1-.4-1.883c2.214-.986,6.683-4.226,5.546-7.431-.423-1.19-1.1-1.849-2.013-1.959a4.088,4.088,0,0,0-3.546,2.036.984.984,0,0,1-1.645-1.079,6.008,6.008,0,0,1,5.427-2.911,4.4,4.4,0,0,1,3.633,3.254c1.552,4.37-3.225,8.384-6.6,9.888a.982.982,0,0,1-.4.085" transform="translate(-161.368 -23.035)" fill="#221714"/>
  <path id="パス_180" data-name="パス 180" d="M379.009,89.672a.984.984,0,0,1-.866-.515c-2.279-4.206-2.327-8.473-.129-11.415a.984.984,0,1,1,1.576,1.178c-1.726,2.31-1.621,5.786.282,9.3a.984.984,0,0,1-.864,1.453" transform="translate(-158.639 -32.599)" fill="#221714"/>
  <path id="パス_181" data-name="パス 181" d="M332.873,54.855a1.472,1.472,0,1,1-1.294-1.631,1.472,1.472,0,0,1,1.294,1.631" transform="translate(-139.058 -22.428)" fill="#221714"/>
  <path id="パス_182" data-name="パス 182" d="M357.644,53.583a1.472,1.472,0,1,1-1.294-1.631,1.472,1.472,0,0,1,1.294,1.631" transform="translate(-149.498 -21.892)" fill="#221714"/>
  <path id="パス_183" data-name="パス 183" d="M320.559,64.635a.97.97,0,0,1-.437-.1,6.623,6.623,0,0,1-1.358-10.963.984.984,0,0,1,1.279,1.5,4.654,4.654,0,0,0,.955,7.7.984.984,0,0,1-.439,1.865" transform="translate(-133.372 -22.478)" fill="#221714"/>
  <path id="パス_184" data-name="パス 184" d="M340.961,82.409h-.019c-2.746-.009-5.95-2.046-6.5-6.494a.82.82,0,0,1,.653-.9c2.884-.579,9.489-.581,11.6.185a.819.819,0,0,1,.533.876c-.568,4.38-3.556,6.337-6.272,6.337m-4.754-5.92c.653,2.94,2.786,4.274,4.741,4.28h.014c1.728,0,3.863-1.116,4.526-4.2a36.586,36.586,0,0,0-9.28-.078" transform="translate(-140.955 -31.44)" fill="#221714"/>
  <path id="パス_185" data-name="パス 185" d="M324.3,40.88a.984.984,0,0,1-.981-.926,6.137,6.137,0,0,1,.867-2.834,10.535,10.535,0,0,0,.438-.971c.7-2,2.368-2.043,3.585-2.072a4.032,4.032,0,0,0,1.841-.315,11.535,11.535,0,0,0,1.054-1.04c1.471-1.551,3.3-3.482,5-3.017a2.679,2.679,0,0,1,1.74,2.261.984.984,0,0,1-1.918.44c-.131-.572-.3-.778-.345-.805-.588-.139-2.441,1.83-3.052,2.475A7.767,7.767,0,0,1,331,35.484a5.744,5.744,0,0,1-2.743.56c-1.254.03-1.545.1-1.777.756a11.2,11.2,0,0,1-.526,1.183,5.242,5.242,0,0,0-.67,1.854.984.984,0,0,1-.924,1.041l-.06,0" transform="translate(-136.266 -12.49)" fill="#221714"/>
  <path id="パス_186" data-name="パス 186" d="M367.6,49.736a.985.985,0,0,1-.818-1.53,3.591,3.591,0,0,0-.574-4.552c-.205-.193-.443-.377-.695-.572a8.757,8.757,0,0,1-1.086-.944,4.023,4.023,0,0,1-.977-2.48,2.438,2.438,0,0,0-.55-1.552,4.987,4.987,0,0,0-3.7-1.226,4.574,4.574,0,0,1-3.405-1.069,3.58,3.58,0,0,1-.741-2.8c.042-1.283.055-1.715-1.637-1.888-1.655-.17-1.674-.067-1.754.365a.984.984,0,1,1-1.935-.356c.427-2.321,2.428-2.117,3.889-1.967,3.519.36,3.447,2.582,3.4,3.91-.023.7-.021,1.144.2,1.373.156.164.626.442,2.008.461a6.813,6.813,0,0,1,5.122,1.858,4.279,4.279,0,0,1,1.059,2.647,2.2,2.2,0,0,0,.465,1.381,7.182,7.182,0,0,0,.85.728c.278.215.565.437.839.7a5.578,5.578,0,0,1,.864,7.076.985.985,0,0,1-.82.439" transform="translate(-147.39 -12.259)" fill="#221714"/>
  <path id="パス_187" data-name="パス 187" d="M362.881,37a2.484,2.484,0,0,1-1.281-.353.984.984,0,1,1,1.007-1.691.663.663,0,0,0,.607,0,1.828,1.828,0,0,0,.994-1.133,6.508,6.508,0,0,0-.124-2.736c-.053-.3-.106-.592-.15-.887-.493-3.339-.027-5.121,1.92-7.331a5.405,5.405,0,0,0,1.662-3.383,1.4,1.4,0,0,0-.554-1.011c-.605-.5-1.909-.413-3.06-.332a10.316,10.316,0,0,1-2.3,0,.984.984,0,0,1-.16-1.9,5.08,5.08,0,0,0,2-1.114,1.22,1.22,0,0,0,.3-1.391,2.4,2.4,0,0,0-1.382-.559,5.73,5.73,0,0,1-1.865-.645,5.292,5.292,0,0,1-2.01-3.283,7.005,7.005,0,0,0-.61-1.572A6.665,6.665,0,0,0,353.1,4.58a14,14,0,0,0-3.448.2,19.179,19.179,0,0,1-2.96.261,20.64,20.64,0,0,1-6.841-1.612l-.458-.165A15.106,15.106,0,0,0,332.8,2.018a5.68,5.68,0,0,0-4.227,2.738,41.517,41.517,0,0,0-2.257,4.106.984.984,0,0,1-1.716.629v0a3.279,3.279,0,0,0-3.669-1.019,3.025,3.025,0,0,0-1.654,3.355c.056.231.144.48.237.744a3.981,3.981,0,0,1,.249,2.749c-.644,1.785-2.805,2.041-3.967,2.179-.922.109-1.873.511-1.87,1,0,.342.418.648,1.1,1.111a5.785,5.785,0,0,1,1.663,1.486c.837,1.249.7,3.007-.37,4.821-.15.252-.308.5-.468.754a5.8,5.8,0,0,0-1.1,2.418,1.552,1.552,0,0,0,.572,1.263c.255.194.413.135.465.116a.984.984,0,0,1,.69,1.843,2.418,2.418,0,0,1-2.345-.392,3.525,3.525,0,0,1-1.343-3,7.45,7.45,0,0,1,1.395-3.3c.148-.233.3-.465.434-.7.248-.419,1.011-1.856.429-2.725a4.264,4.264,0,0,0-1.132-.951c-.872-.59-1.958-1.325-1.968-2.727-.01-1.538,1.405-2.7,3.607-2.963,1.023-.121,2.134-.3,2.348-.893a2.457,2.457,0,0,0-.253-1.426,9.679,9.679,0,0,1-.294-.933,4.856,4.856,0,0,1,7.561-5.1c.157-.3.344-.65.566-1.052.588-1.07,1.27-2.224,1.465-2.5A7.68,7.68,0,0,1,332.58.063a16.716,16.716,0,0,1,7.479,1.346l.461.166a19.193,19.193,0,0,0,6.186,1.5,19.356,19.356,0,0,0,2.679-.244,15.711,15.711,0,0,1,3.938-.2,8.673,8.673,0,0,1,6.219,4.008,8.473,8.473,0,0,1,.821,2.036,3.8,3.8,0,0,0,1.163,2.185,4.2,4.2,0,0,0,1.246.4,3.931,3.931,0,0,1,2.549,1.312,3.039,3.039,0,0,1-.154,3.548,4.554,4.554,0,0,1,3.056.854,3.381,3.381,0,0,1,1.255,2.371c.148,1.917-1.282,3.852-2.147,4.834-1.545,1.754-1.857,2.989-1.45,5.743.041.275.09.551.14.827a8.16,8.16,0,0,1,.088,3.593,3.779,3.779,0,0,1-2.154,2.447,2.844,2.844,0,0,1-1.073.218M326.089,8.2h0Zm0,0h0m-.021-.025h0c.008.008.014.016.021.024l-.021-.024" transform="translate(-131.48 0)" fill="#221714"/>
  <path id="パス_188" data-name="パス 188" d="M358.857,112.065l-.058,0a.985.985,0,0,1-.925-1.04,6.481,6.481,0,0,0-3.248-5.808.984.984,0,0,1,.961-1.718,8.49,8.49,0,0,1,4.011,5.241c.6-.483,1.369-1.037,2.329-1.7.61-.425,1.187-.826,1.405-1.026q2.788-2.551,5.585-5.095l1.951-1.778a11.15,11.15,0,0,1-2.5-4.455,40.354,40.354,0,0,1-14.521,8.118,11.219,11.219,0,0,1-3.561,7.253.984.984,0,1,1-1.324-1.455,9.2,9.2,0,0,0,2.953-6.554.983.983,0,0,1,.708-.93,38.351,38.351,0,0,0,15.712-9.066.984.984,0,0,1,1.663.673c.065,1.687,1.437,4.639,2.886,5.552a.985.985,0,0,1,.139,1.56l-2.786,2.539q-2.793,2.542-5.581,5.091a18.311,18.311,0,0,1-1.611,1.189,17.45,17.45,0,0,0-3.222,2.587.985.985,0,0,1-.971.828" transform="translate(-146.942 -38.679)" fill="#221714"/>
  <path id="パス_189" data-name="パス 189" d="M347.628,108.036a.985.985,0,0,1-.859-1.463,4.782,4.782,0,0,0,.465-3.407.984.984,0,0,1,1.913-.461,6.772,6.772,0,0,1-.658,4.824.982.982,0,0,1-.861.506" transform="translate(-146.099 -42.969)" fill="#221714"/>
  <path id="パス_190" data-name="パス 190" d="M341.6,121.109a.985.985,0,0,1-.905-1.368,5.089,5.089,0,0,0-1.464-5.6.984.984,0,0,1,1.3-1.474,7.1,7.1,0,0,1,1.972,7.844.983.983,0,0,1-.906.6" transform="translate(-142.832 -47.381)" fill="#221714"/>
  <path id="パス_191" data-name="パス 191" d="M333.051,118.457a.986.986,0,0,1-.951-1.241,8.381,8.381,0,0,0-.13-3.478c-.049-.291-.1-.581-.141-.87-.252-1.687-.258-3.979,1.147-5.312a4.7,4.7,0,0,1,2.582-1.08c.818-.151,1.335-.265,1.644-.691a.984.984,0,0,1,1.593,1.155,4.117,4.117,0,0,1-2.88,1.471,3.081,3.081,0,0,0-1.584.572c-.6.569-.808,1.913-.556,3.594.041.276.089.553.135.832a9.942,9.942,0,0,1,.089,4.319.984.984,0,0,1-.949.728" transform="translate(-139.801 -44.414)" fill="#221714"/>
  <path id="パス_192" data-name="パス 192" d="M304.638,188.787a.986.986,0,0,1-.981-1.078l.1-1.055a.987.987,0,0,1,.282-.6,191.979,191.979,0,0,0,4.209-26.092c.227-2.489.622-4.979,1.006-7.388.285-1.793.58-3.648.8-5.47.167-1.384.306-2.8.441-4.171a90.047,90.047,0,0,1,1.254-9.341l.127-.621c.892-4.373,1.813-8.895,6.463-11.425a.984.984,0,1,1,.94,1.729c-3.844,2.093-4.6,5.8-5.475,10.09l-.128.624a88.392,88.392,0,0,0-1.223,9.138c-.137,1.38-.278,2.808-.447,4.213-.223,1.859-.521,3.733-.81,5.545-.378,2.377-.769,4.834-.99,7.257a193.8,193.8,0,0,1-4.616,27.893.984.984,0,0,1-.955.753" transform="translate(-127.979 -51.177)" fill="#221714"/>
  <path id="パス_193" data-name="パス 193" d="M407.178,161.41a.984.984,0,0,1-.382-1.891c3.741-1.573,5.82-2.669,5.069-6.892-1.756-9.874-5.867-20.9-9.844-31.556q-.976-2.617-1.938-5.217c-1.335-3.625-6.415-9.157-10.169-9.157h-.03a.984.984,0,0,1-.006-1.968h.034c4.742,0,10.465,6.229,12.018,10.445q.955,2.592,1.935,5.209c4.008,10.742,8.152,21.85,9.939,31.9,1.063,5.977-2.819,7.609-6.244,9.049a.974.974,0,0,1-.381.078" transform="translate(-163.908 -44.14)" fill="#221714"/>
  <path id="パス_194" data-name="パス 194" d="M335.538,173.024l-.072,0a.983.983,0,0,1-.91-1.052c.089-1.232.131-2.417.129-3.622a247.946,247.946,0,0,1,3.646-42.791.984.984,0,0,1,1.939.337,245.79,245.79,0,0,0-3.617,42.451c0,1.254-.043,2.487-.135,3.768a.984.984,0,0,1-.98.913" transform="translate(-141.003 -52.574)" fill="#221714"/>
  <path id="パス_195" data-name="パス 195" d="M331.342,232.924l-.07,0a.983.983,0,0,1-.912-1.05c.2-2.793.561-5.265.892-7.314a.984.984,0,0,1,1.942.313c-.323,2.007-.68,4.425-.871,7.139a.984.984,0,0,1-.98.915" transform="translate(-139.234 -94.294)" fill="#221714"/>
  <path id="パス_196" data-name="パス 196" d="M351.523,168.17l-.066,0a.984.984,0,0,1-.917-1.047l.053-.788c.227-3.419.462-6.955.533-10.479a338.857,338.857,0,0,0-1.233-35.42.984.984,0,1,1,1.96-.167,340.584,340.584,0,0,1,1.24,35.626c-.072,3.571-.308,7.13-.538,10.572l-.052.786a.983.983,0,0,1-.981.919" transform="translate(-147.467 -50.309)" fill="#221714"/>
  <path id="パス_197" data-name="パス 197" d="M351.9,236.716a.984.984,0,0,1-.975-.86q-.13-1.021-.226-2.036a.984.984,0,0,1,1.959-.186q.093.985.219,1.974a.985.985,0,0,1-.852,1.1,1.028,1.028,0,0,1-.126.008" transform="translate(-147.808 -98.094)" fill="#221714"/>
  <path id="パス_198" data-name="パス 198" d="M345.43,132.718a.984.984,0,0,1-.058-1.966l4.115-.246a.984.984,0,1,1,.117,1.965l-4.115.246-.06,0" transform="translate(-145.173 -55.003)" fill="#221714"/>
  <path id="パス_199" data-name="パス 199" d="M317.588,204.826a.994.994,0,0,1-.137-.01.983.983,0,0,1-.839-1.11c.969-6.955,1.471-14.094,1.955-21l.1-1.476c.455-6.445.67-13.272.7-22.136a.985.985,0,0,1,.984-.981h0a.984.984,0,0,1,.981.987c-.027,8.911-.244,15.779-.7,22.27l-.1,1.475c-.488,6.937-.991,14.109-1.97,21.131a.985.985,0,0,1-.974.849" transform="translate(-133.438 -66.64)" fill="#221714"/>
  <path id="パス_200" data-name="パス 200" d="M369.058,194.714a.985.985,0,0,1-.974-1.123c.738-5.165-1.195-9.342-5.744-12.415l0,0a.984.984,0,0,1,.963-1.709h.02c2.034,0,12.979-6.735,16.606-8.966.724-.447,1.329-.819,1.793-1.1-.9-2.4-1.861-6.156-2.721-9.511-.593-2.31-1.152-4.492-1.621-5.975a.984.984,0,0,1,1.877-.592c.484,1.534,1.05,3.741,1.651,6.078a87.663,87.663,0,0,0,2.944,10.03.984.984,0,0,1-.419,1.243c-.415.236-1.323.795-2.473,1.5-8.634,5.313-13.173,7.814-15.7,8.763a13.641,13.641,0,0,1,4.924,11.333,180.366,180.366,0,0,0,21.856-11.089.984.984,0,0,1,.99,1.7c-10.246,5.972-19.66,10.446-23.663,11.78a.977.977,0,0,1-.311.051" transform="translate(-152.53 -64.33)" fill="#221714"/>
  <path id="パス_201" data-name="パス 201" d="M333.749,212.188a1.717,1.717,0,0,1-.916-.258,2.089,2.089,0,0,1-.738-2.446,5.286,5.286,0,0,1,.366-.828,3.786,3.786,0,0,0,.235-.507,3.98,3.98,0,0,0,.119-1.051,4.216,4.216,0,0,1,.475-2.15,4.034,4.034,0,0,1,2.246-1.587,28.841,28.841,0,0,1,7.923-1.281l.065,0a20.931,20.931,0,0,1,2.97.052c1.9.131,3.162.219,4.986-1.149a.984.984,0,1,1,1.181,1.574c-2.409,1.809-4.3,1.678-6.3,1.538a18.934,18.934,0,0,0-2.7-.052l-.065,0a27.369,27.369,0,0,0-7.39,1.17,2.388,2.388,0,0,0-1.222.747,2.683,2.683,0,0,0-.2,1.2,5.5,5.5,0,0,1-.218,1.609,5.346,5.346,0,0,1-.356.794,3.781,3.781,0,0,0-.236.511.984.984,0,0,1,1.187,1.567,2.213,2.213,0,0,1-1.409.548" transform="translate(-139.916 -84.622)" fill="#221714"/>
  <path id="パス_202" data-name="パス 202" d="M340.112,225.307a5.652,5.652,0,0,1-2.148-.422,10.279,10.279,0,0,1-2.683-1.8,6.642,6.642,0,0,0-2.976-1.742c-.111-.02-.225-.034-.34-.049a3.3,3.3,0,0,1-1.673-.568,2.337,2.337,0,0,1-1.143-2.246c.268-1.675,2.734-2.539,4.714-3.233a11.209,11.209,0,0,0,1.233-.474.162.162,0,0,0,.031-.05.984.984,0,0,1,1.848-.671,2.007,2.007,0,0,1-.771,2.347,7.9,7.9,0,0,1-1.692.706c-.792.278-3.189,1.118-3.42,1.688a2.791,2.791,0,0,0,.4.374,1.914,1.914,0,0,0,.732.177c.143.019.286.038.425.063a8.349,8.349,0,0,1,3.9,2.171,8.67,8.67,0,0,0,2.163,1.483c1.587.646,3.5.132,5.841-1.571.357-.259.709-.505,1.055-.747a21.711,21.711,0,0,0,2.769-2.168c1.091-1.057,4.371-3.889,6.423-4.3a.984.984,0,1,1,.384,1.929c-1.261.252-3.968,2.358-5.438,3.782a23.219,23.219,0,0,1-3.011,2.367c-.337.236-.679.475-1.026.727a9.76,9.76,0,0,1-5.593,2.224M335.154,214.8h0Z" transform="translate(-138.715 -89.958)" fill="#221714"/>
  <path id="パス_203" data-name="パス 203" d="M403.973,229.034a.983.983,0,0,1-.983-.961l-.45-19.025a.984.984,0,0,1,.961-1.007,1,1,0,0,1,1.007.96l.449,19.025a.984.984,0,0,1-.96,1.007h-.024" transform="translate(-169.657 -87.682)" fill="#221714"/>
  <path id="パス_204" data-name="パス 204" d="M177.405,37.171a23.184,23.184,0,0,0-7.238,9.512c-1.971,4.482-2.915,9.335-3.844,14.142-.452,2.336-.9,4.762-.322,7.07a16.372,16.372,0,0,0,1.846,4.043l4.988,8.728c-1.749.465-2.111,3.086-.916,4.445s3.238,1.616,5.025,1.329,3.482-1.015,5.272-1.277a3.042,3.042,0,0,1,2.768.656c.989,1.131.034,3.06-1.38,3.569A7.036,7.036,0,0,1,179.2,89c.912.285-5.777,6.223-6.079,6.517a44.3,44.3,0,0,0-6.894,8.8c-3.782,6.226-6.3,13.121-8.8,19.965-.694,1.905-1.4,3.97-.83,5.918.795,2.729,3.92,4.228,6.76,4.1s5.459-1.485,7.971-2.815l-.9,17.124a303.277,303.277,0,0,0,42.33,1.711c-2.224-3.6-2.423-8.148-1.607-12.3s2.555-8.061,4.01-12.038c1.805-4.934,3.2-10.108,3.1-15.36-.1-5.608-2.071-11.369-6.369-15.143-1.931-1.695-4.126-1.936-6.261-3.188-3.352-1.966-9.376-4.157-9.71-8.7a34.4,34.4,0,0,0,18.05-4.981c-1.475.9-3.144-7.56-3.177-8.275-.139-3.062.2-5.961.264-9.031.164-7.733-3.389-15.168-8.281-21.159a15.048,15.048,0,0,0-4.386-3.959c-3.229-1.719-5.847.414-9.072-.221-1.024-.2-1.832-.864-2.905-1.033a11.943,11.943,0,0,0-9.014,2.241" transform="translate(-65.913 -14.658)" fill="#fff"/>
  <path id="パス_205" data-name="パス 205" d="M195.374,120.672a9.259,9.259,0,0,1-10.58-3.056l1.323-1.483,10.676,3.113Z" transform="translate(-77.884 -48.946)" fill="#f5da47"/>
  <path id="パス_206" data-name="パス 206" d="M220.2,81.34c-2.029.481-4.758,2.332-5.776,2.743a23.748,23.748,0,0,1-10.617,1.494c-.942-4.742,3.666-7.07,4.267-11.228.082-.568.148-1.242.647-1.524a2.054,2.054,0,0,1,1.1-.113,4.529,4.529,0,0,0,4.256-2.758,6.02,6.02,0,0,0-.809-5.178c-1.133-1.571-2.841-.533-4.325-1.277a3.166,3.166,0,0,1-.9-.773c-1.1-1.244-1.746-2.853-2.8-4.062-1.092-1.248-3.3-1.713-4.816-2.239-1.032-.359-11.961-3.592-12.2-2.8a4.58,4.58,0,0,0-.636-3.892A17.766,17.766,0,0,1,174.709,58.9a17.03,17.03,0,0,1,5.175-12.4c.73-.734,1.6-1.245,2.358-1.911.726-.639,1.193-1.5,1.9-2.17a10.645,10.645,0,0,1,6.027-2.653c3.191-.378,6,.678,9.107.938a17.588,17.588,0,0,1,7.229,1.779c6.025,3.218,8.8,10.359,9.911,17.1,1.267,7.68-.956,16.2,5.671,21.969a2.108,2.108,0,0,0-1.891-.212" transform="translate(-73.63 -16.727)" fill="#58c1df"/>
  <path id="パス_207" data-name="パス 207" d="M153.759,164.315l.085-.228a9.408,9.408,0,0,1,2.745-3.7c.886-.75,2.988-1.213,3.618-1.972-1.733,2.09-3.064,4.825-2.43,7.465s4,4.583,6.218,3.022c.8-5.944,7.6-10.288,13.329-8.522,2.457.756,4.562,2.4,7.009,3.188s5.677.342,6.757-1.99c1.242-2.68-1.11-5.567-3.266-7.586-2.974-2.785-6.064-5.642-9.9-7.011s-8.655-.857-11.229,2.3c-1.227,1.507-1.818,3.426-2.842,5.077s-2.8,3.13-4.715,2.816c-.186-.03,4.834-10.587,5.4-11.513a51.1,51.1,0,0,1,8.511-10.846c1.01-.938,2.523-1.5,3.421-2.437,2.113-2.2.915-3,4.492-3.357,3.185-.314,6.379-.541,9.565-.845,2.5-.238,4.529-.853,6.917.473a18.523,18.523,0,0,1,3.754,3.475c2.762,2.764,6.817,3.951,9.671,6.845a35.949,35.949,0,0,1,7.007,10.723c2.283,5.135,4.01,10.819,2.915,16.33s-5.8,10.628-11.419,10.507q-.244,6.989-.487,13.979c-3.443.083-40.721-.293-40.721-1.118l1.946-17.307c-2.754,3.042-10.255,7.578-14.6,5.394-4.3-2.16-3.005-9.734-1.751-13.167" transform="translate(-64.295 -53.876)" fill="#58c1df"/>
  <path id="パス_208" data-name="パス 208" d="M193.329,108.5a.973.973,0,0,1-.249-.032.984.984,0,0,1-.7-1.2,8.292,8.292,0,0,1,.412-1.146c.27-.64.383-.94.245-1.354-.378-1.135-2.584-1.511-4.356-1.813a13.736,13.736,0,0,1-2.8-.665,17.65,17.65,0,0,1-6.905-5.364c-3.462-4.356-3.427-14.429-3.334-17.412a.984.984,0,1,1,1.967.062c-.173,5.534.485,13.078,2.907,16.126a15.671,15.671,0,0,0,6.124,4.771,12.641,12.641,0,0,0,2.375.542c2.291.39,5.141.875,5.893,3.131a3.618,3.618,0,0,1-.3,2.739,6.5,6.5,0,0,0-.321.879.985.985,0,0,1-.952.736" transform="translate(-74.013 -33.11)" fill="#221714"/>
  <path id="パス_209" data-name="パス 209" d="M172.881,89.608a.979.979,0,0,1-.566-.181,6.9,6.9,0,0,1-2.78-6.222,5.262,5.262,0,0,1,3.267-4.4.984.984,0,0,1,.761,1.814,3.317,3.317,0,0,0-2.072,2.8,4.943,4.943,0,0,0,1.958,4.4.984.984,0,0,1-.568,1.788" transform="translate(-71.438 -33.182)" fill="#221714"/>
  <path id="パス_210" data-name="パス 210" d="M231.841,90.952A.984.984,0,0,1,231.666,89c2.392-.437,5.269-1.916,5.507-4.648a2.337,2.337,0,0,0-.926-2.183,4.094,4.094,0,0,0-3.7-.5.984.984,0,1,1-.669-1.85,6.069,6.069,0,0,1,5.572.785,4.3,4.3,0,0,1,1.686,3.914c-.333,3.836-4.04,5.852-7.114,6.413a.98.98,0,0,1-.178.016" transform="translate(-97.299 -33.496)" fill="#221714"/>
  <path id="パス_211" data-name="パス 211" d="M210.632,83.825a.984.984,0,0,1-.013-1.968,19.531,19.531,0,0,0,12.022-3.843c-3.742-3.833-2.889-11.142-2.661-12.67.946-6.35-.134-10.035-2.915-15.892L216.9,49.1c-2.682-5.655-6.725-14.193-13.69-13.412a21.4,21.4,0,0,1-4.824-.19,19.407,19.407,0,0,0-4.526-.181c-6.379.783-10.068,5.281-12.836,9.578a.984.984,0,1,1-1.654-1.066c3.014-4.68,7.064-9.583,14.25-10.466a21.157,21.157,0,0,1,4.991.178,19.55,19.55,0,0,0,4.378.19c8.352-.947,12.946,8.738,15.69,14.524l.164.347c2.9,6.106,4.1,10.211,3.084,17.026-.133.89-1.179,8.785,2.867,11.641a.984.984,0,0,1,.024,1.591c-4.71,3.54-8.552,4.884-14.172,4.959Z" transform="translate(-75.532 -14.027)" fill="#221714"/>
  <path id="パス_212" data-name="パス 212" d="M173.723,73.761h-.031a.985.985,0,0,1-.953-1.014,83.48,83.48,0,0,1,.994-9.609.984.984,0,0,1,1.947.286,81.76,81.76,0,0,0-.974,9.383.984.984,0,0,1-.983.954" transform="translate(-72.803 -26.257)" fill="#221714"/>
  <path id="パス_213" data-name="パス 213" d="M191.574,91.7a2.809,2.809,0,0,1-1.851-.588,2.114,2.114,0,0,1-.7-1.892.984.984,0,1,1,1.96.174.431.431,0,0,0,.016.219,1.969,1.969,0,0,0,1.368.016.984.984,0,0,1,.473,1.91,5.424,5.424,0,0,1-1.267.161" transform="translate(-79.662 -37.226)" fill="#221714"/>
  <path id="パス_214" data-name="パス 214" d="M186.4,78.706a1.4,1.4,0,1,1-1.3-1.492,1.4,1.4,0,0,1,1.3,1.492" transform="translate(-77.383 -32.542)" fill="#221714"/>
  <path id="パス_215" data-name="パス 215" d="M210.94,77.125a1.4,1.4,0,1,1-1.3-1.493,1.4,1.4,0,0,1,1.3,1.493" transform="translate(-87.724 -31.875)" fill="#221714"/>
  <path id="パス_216" data-name="パス 216" d="M224.848,114.553a.983.983,0,0,1-.844-.477c-2.685-4.46-.029-8.616,2.106-11.955.245-.384.488-.764.721-1.14a.984.984,0,1,1,1.673,1.036c-.237.384-.485.772-.736,1.165-2.126,3.325-4.133,6.466-2.078,9.88a.984.984,0,0,1-.842,1.492" transform="translate(-93.933 -42.363)" fill="#221714"/>
  <path id="パス_217" data-name="パス 217" d="M197.118,103.644c-2.152,0-4.9-1.564-5.964-6.055a.82.82,0,0,1,.477-.944c.98-.416,7.7-.828,10.363-.264a.82.82,0,0,1,.646.885c-.424,4.189-2.935,6.217-5.235,6.369-.095.006-.191.009-.288.009m-4.139-5.607c.978,3.051,2.885,4.058,4.319,3.962,1.479-.1,3.093-1.416,3.6-4.134a41.785,41.785,0,0,0-7.92.172" transform="translate(-80.555 -40.505)" fill="#221714"/>
  <path id="パス_218" data-name="パス 218" d="M207.657,68.54a.983.983,0,0,1-.5-.139c-6.918-4.121-12.53-5.8-18.209-5.448a.978.978,0,0,1-1.028-.8l-.37-1.963a8,8,0,0,0-1.2,2.961.984.984,0,0,1-.712.865c-2.4.678-7.1,2.364-7.865,2.962a.984.984,0,1,1-1.208-1.554c1.127-.876,5.705-2.447,7.933-3.124a17.237,17.237,0,0,1,2.664-5.152l.078-.116a.984.984,0,0,1,1.784.367l.67,3.549c5.792-.166,11.536,1.631,18.469,5.762a.984.984,0,0,1-.5,1.829" transform="translate(-74.256 -23.854)" fill="#221714"/>
  <path id="パス_219" data-name="パス 219" d="M185.062,118.583a.982.982,0,0,1-.449-.109,14.769,14.769,0,0,1-4.275-3.3.985.985,0,0,1,.057-1.37,6.356,6.356,0,0,0,1.711-2.779.984.984,0,0,1,1.885.565,8.323,8.323,0,0,1-1.566,2.92,12.809,12.809,0,0,0,3.087,2.218.984.984,0,0,1-.45,1.859" transform="translate(-75.901 -46.496)" fill="#221714"/>
  <path id="パス_220" data-name="パス 220" d="M227.942,175c-9.557,0-19.65-5.789-26.423-9.673a.984.984,0,0,1,.058-1.738,7.117,7.117,0,0,0,4-5.166,7.283,7.283,0,0,0-2.1-6.34.984.984,0,1,1,1.412-1.371c.5.476,3.742,1.53,5.126,1.98.721.234,1.344.437,1.727.582a43.051,43.051,0,0,0,4.488,1.314c.641.164,1.295.33,1.943.507l-.262-2.691a.984.984,0,0,1,1.958-.19l.4,4.138A.984.984,0,0,1,219,157.386c-1.041-.328-2.165-.614-3.252-.892a44.364,44.364,0,0,1-4.7-1.38c-.34-.128-.943-.325-1.64-.551-.954-.311-1.78-.585-2.491-.835a8.861,8.861,0,0,1-2.97,10.72c6.815,3.884,16.4,9.007,25.1,8.554,3.824-.2,4.672-6.809,4.8-8.131a30.389,30.389,0,0,0-1.877-12.644c-.312-.927-.614-1.866-.916-2.808-1.374-4.281-2.8-8.708-5.381-12.35a18.5,18.5,0,0,0-5.61-5.237,5.024,5.024,0,0,0-1.747-.559,8.491,8.491,0,0,1-1.635-.433c-1.053-.421-1.688-1.756-2.248-3.086l-.045-.109c-.542-.178-1.074-.373-1.592-.562a13.391,13.391,0,0,0-4.865-1.15,48.522,48.522,0,0,0-6.935.811c-.234.039-.8.186-1.458.356-3.452.895-5.733,1.371-7.137,1.2a10.386,10.386,0,0,1-4.084,4.691.984.984,0,1,1-1.147-1.6c1.975-1.416,3.141-2.569,3.648-4.6a.985.985,0,0,1,1.633-.475c.924.349,5.183-.756,6.595-1.122.759-.2,1.307-.338,1.626-.392a50.185,50.185,0,0,1,7.217-.836,15.118,15.118,0,0,1,5.585,1.269c.622.228,1.265.463,1.893.657.481.146.632.505.882,1.1.636,1.516.985,1.937,1.165,2.023a6.789,6.789,0,0,0,1.269.326,6.841,6.841,0,0,1,2.379.8,20.456,20.456,0,0,1,6.216,5.794c2.762,3.89,4.23,8.464,5.65,12.887.3.933.6,1.863.908,2.782a32.281,32.281,0,0,1,1.97,13.466c-.224,2.252-1.365,9.622-6.658,9.9-.4.021-.8.032-1.206.032m-13.158-47.229.007,0-.007,0" transform="translate(-78.713 -52.246)" fill="#221714"/>
  <path id="パス_221" data-name="パス 221" d="M198.264,177.754a.815.815,0,0,1-.6-.26c-1.669-1.785-3.73-2.189-5.913-2.617a16.4,16.4,0,0,1-4.809-1.486c-.115-.061-.285-.161-.49-.282a11.451,11.451,0,0,0-2.126-1.067.82.82,0,0,1-.281-1.614h0a11.686,11.686,0,0,0,1.29-.386,8.207,8.207,0,0,1,2.485-.557,2.965,2.965,0,0,0,1.344-.24c.211-.123.331-.379.292-.467s-.243-.235-.944-.338l-5.1-.747a5.929,5.929,0,0,0-3.189.1,5.862,5.862,0,0,0-.731.437,7.341,7.341,0,0,1-.895.533,2.474,2.474,0,0,1-2.683-.155,2.327,2.327,0,0,1-.152-3.185,7.174,7.174,0,0,1,2.4-1.873,12.616,12.616,0,0,1-2.294.132,1.923,1.923,0,0,1-1.362-.6,1.3,1.3,0,0,1-.328-.985,1.71,1.71,0,0,1,.9-1.238c.329-.21.66-.454,1.01-.711a7.961,7.961,0,0,1,3.38-1.728,11.72,11.72,0,0,1,4.376.36.8.8,0,0,1,0-.112.185.185,0,0,0-.109-.144.82.82,0,0,1,.073-1.61,8.559,8.559,0,0,1,5.244,1.057,6.642,6.642,0,0,1,1.586.841.814.814,0,0,1,.27.333,24.854,24.854,0,0,1,2.761,2.412l.694.7c1.878,1.891,3.82,3.846,6.138,4.725a.82.82,0,0,1-.581,1.534c-2.65-1.006-4.719-3.089-6.72-5.1l-.687-.688a23.494,23.494,0,0,0-2.522-2.207,8.41,8.41,0,0,1-5.524.106,12.685,12.685,0,0,0-4.747-.577,6.582,6.582,0,0,0-2.656,1.426c-.263.194-.533.393-.807.58h.042a17.39,17.39,0,0,0,4.03-.606c.876-.2,1.783-.414,2.773-.552,2.091-.294,4.522.669,6.476,1.442.252.1.5.2.728.285a1.976,1.976,0,0,1,1.321,1.236,1.374,1.374,0,0,1-.277,1.266c-.383.451-1.264,1.015-4.5.72a10.673,10.673,0,0,1-2.854-.785,8.741,8.741,0,0,0-2.528-.69,6.123,6.123,0,0,0-4.4,2.068c-.227.29-.272.761-.087.916a.978.978,0,0,0,.921-.065,6.141,6.141,0,0,0,.7-.422,7.058,7.058,0,0,1,.949-.558,7.265,7.265,0,0,1,4.116-.238l5.1.747a2.659,2.659,0,0,1,2.2,1.292,2.08,2.08,0,0,1-.96,2.551,4.351,4.351,0,0,1-2.124.464,4.812,4.812,0,0,0-1.209.212c.195.11.4.23.622.36.182.107.334.2.436.251a14.908,14.908,0,0,0,4.348,1.32c2.342.459,4.764.935,6.794,3.107a.82.82,0,0,1-.6,1.38m-16.327-14.987a11.3,11.3,0,0,1,2.636.761,9.165,9.165,0,0,0,5.2.647l-.055-.021c-.237-.091-.485-.19-.742-.291-1.774-.7-3.983-1.576-5.646-1.343-.475.067-.938.152-1.39.247m3.919-3.516a7.706,7.706,0,0,0,2.165.123,5.364,5.364,0,0,0-2.165-.123" transform="translate(-73.409 -66.105)" fill="#221714"/>
  <path id="パス_222" data-name="パス 222" d="M172.423,192.083a.819.819,0,0,1-.819-.8,9.985,9.985,0,0,1,.234-2.9c.482-1.735,2.231-3.089,3.773-4.284.529-.41,1.029-.8,1.412-1.151a6.153,6.153,0,0,1,4.51-1.63.82.82,0,0,1-.089,1.637,4.62,4.62,0,0,0-3.306,1.195c-.436.4-.964.813-1.522,1.246-1.341,1.038-2.861,2.216-3.2,3.427a8.613,8.613,0,0,0-.175,2.424.819.819,0,0,1-.8.836Z" transform="translate(-72.321 -76.415)" fill="#221714"/>
  <path id="パス_223" data-name="パス 223" d="M161.422,183.706a.812.812,0,0,1-.32-.065.821.821,0,0,1-.434-1.076c.27-.637.527-1.292.786-1.951a30.253,30.253,0,0,1,2.449-5.236c.969-1.524,2.054-3.007,3.1-4.44.525-.718,1.05-1.435,1.56-2.157a.82.82,0,1,1,1.339.947c-.515.729-1.045,1.453-1.575,2.179-1.033,1.412-2.1,2.872-3.043,4.352a29.062,29.062,0,0,0-2.306,4.955c-.264.674-.526,1.343-.8,1.994a.82.82,0,0,1-.755.5" transform="translate(-67.688 -70.989)" fill="#221714"/>
  <path id="パス_224" data-name="パス 224" d="M163.131,162.329a.984.984,0,0,1-.865-1.453c.739-1.365,1.45-2.752,2.138-4.093,2.667-5.2,5.186-10.109,9.45-14.485a.984.984,0,0,1,1.41,1.373c-4.058,4.165-6.511,8.948-9.109,14.011-.693,1.351-1.409,2.747-2.157,4.131a.985.985,0,0,1-.867.516" transform="translate(-68.34 -59.848)" fill="#221714"/>
  <path id="パス_225" data-name="パス 225" d="M165.239,193.179a7.575,7.575,0,0,1-6.572-4.067,7.981,7.981,0,0,1-.028-7.165,4.056,4.056,0,0,1,3.534-2.13,1.006,1.006,0,0,1,1,.962.984.984,0,0,1-.962,1.005,2.077,2.077,0,0,0-1.87,1.14,6.1,6.1,0,0,0,.039,5.229,5.445,5.445,0,0,0,6.09,2.878c1.784-.556,2.675-2.252,2.445-4.652a.984.984,0,1,1,1.959-.187c.38,3.958-1.723,6.065-3.818,6.718a6.126,6.126,0,0,1-1.822.269" transform="translate(-66.508 -75.787)" fill="#221714"/>
  <path id="パス_226" data-name="パス 226" d="M203.978,136.8h-.039a1.865,1.865,0,0,1-1.47-.788,2.047,2.047,0,0,1-.351-1.769,1.749,1.749,0,0,1,1.1-1.339,1.6,1.6,0,0,1,1.5.392,2.516,2.516,0,0,1,.912,2.534,1.575,1.575,0,0,1-1.66.971m-.37-2.642s-.12.068-.229.448a.753.753,0,0,0,.143.624.6.6,0,0,0,.433.259c.29,0,.431-.056.452-.113a1.323,1.323,0,0,0-.52-1.071.542.542,0,0,0-.279-.146" transform="translate(-85.155 -55.989)" fill="#221714"/>
  <path id="パス_227" data-name="パス 227" d="M202.992,152.976h-.038a1.866,1.866,0,0,1-1.47-.789,2.045,2.045,0,0,1-.351-1.769,1.749,1.749,0,0,1,1.1-1.339,1.6,1.6,0,0,1,1.5.392,2.484,2.484,0,0,1,.912,2.533,1.575,1.575,0,0,1-1.661.971m-.369-2.642s-.12.068-.229.448a.754.754,0,0,0,.143.624.6.6,0,0,0,.433.259c.28.005.43-.056.451-.113a1.322,1.322,0,0,0-.52-1.071.511.511,0,0,0-.279-.146" transform="translate(-84.741 -62.807)" fill="#221714"/>
  <path id="パス_228" data-name="パス 228" d="M179.97,215.343a1.046,1.046,0,0,1-.112-.006.984.984,0,0,1-.867-1.089c.855-7.549,1.4-15.428,1.629-23.418a.984.984,0,0,1,.983-.956h.028a.983.983,0,0,1,.956,1.011c-.227,8.046-.779,15.981-1.64,23.585a.984.984,0,0,1-.977.874" transform="translate(-75.436 -80.025)" fill="#221714"/>
  <path id="パス_229" data-name="パス 229" d="M251.051,224.5a.983.983,0,0,1-.978-.887l-1.4-14.129a.984.984,0,0,1,1.958-.194l1.4,14.129a.983.983,0,0,1-.882,1.076.948.948,0,0,1-.1.005" transform="translate(-104.805 -87.835)" fill="#221714"/>
  <path id="パス_230" data-name="パス 230" d="M158.186,202.115a7.637,7.637,0,0,1-3.419-.731c-6.071-2.994-2.6-12.315-.924-16.794l.186-.5a.984.984,0,0,1,1.845.683l-.187.5c-1.469,3.939-4.525,12.134-.049,14.342,1.665.82,4.046.691,7.078-.385a16.552,16.552,0,0,0,5.794-3.715.984.984,0,1,1,1.4,1.386,18.378,18.378,0,0,1-6.532,4.183,15.723,15.723,0,0,1-5.188,1.027" transform="translate(-63.78 -77.317)" fill="#221714"/>
  <path id="パス_231" data-name="パス 231" d="M107.631,107.38l-.1.195c.243-.473-6.2-.282-6.925-.073a15.868,15.868,0,0,0-6.857,4.1c-4.128,4.2-6.123,9.99-7.993,15.573a8.057,8.057,0,0,0-.618,3.936,2.769,2.769,0,0,0,2.741,2.417c.063,3.733.662,8.294,4.124,9.691,1.888.761,4.056.259,6.038.726s3.785,2.954,2.386,4.433c-1.974-1.108-4.538-.278-6.263,1.188s-2.894,3.465-4.38,5.172a35.524,35.524,0,0,1-7.645,6.05c-2.373,1.553-5.358,1.586-7.137,4.047a6.891,6.891,0,0,0-1.2,5.119c-3.53-.146-7.6-.511-11.088.118-4.45.8,1.945,4.5,2.1,4.348l-.8.75a38.7,38.7,0,0,0,28.948-11.833q-.005,8.118-.01,16.237a226.177,226.177,0,0,0,26.22.418,40.341,40.341,0,0,1-4.216-14.863c-.086-1.029.05-2.347,1.032-2.668a2.43,2.43,0,0,1,1.866.455L147.565,179.7q.038-1.544.076-3.088l3.189.937a2.492,2.492,0,0,0-.536-2.469l1.615-.362a2.691,2.691,0,0,1,1.991-2.847c0,1.054-13.559-2.19-14.835-2.58a2.006,2.006,0,0,0,.511-2.782,6.216,6.216,0,0,0-2.459-1.957,59.3,59.3,0,0,1-11.289-8.2c-3.118-2.881-5.454-6.978-9.279-8.841-.635-.31-2.317-1.532-2.879-1.544,2.877.063,5.461-2.078,6.679-4.685a17.328,17.328,0,0,0,1.122-8.466,49.765,49.765,0,0,0-1.6-9.705c-.353-1.321-.99-2.638-1.283-3.955-.287-1.294-.078-2.633-.526-3.915-.17-.487-3.254-4.061-3.488-3.76a4.688,4.688,0,0,0-.784-6.757c-3.231-2.445-4.893.219-6.161,2.657" transform="translate(-25.771 -43.729)" fill="#fff"/>
  <path id="パス_232" data-name="パス 232" d="M100.4,185.767c-2.064,3.191-4.5,6.714-7.906,8.378-3.173,1.553-7.127,2.491-9.114,5.732a3.293,3.293,0,0,0,.446,4.474c1.541,1.364,3.2.589,5.047-.035a25.117,25.117,0,0,0,15.592-15.487c.547,1.721,2.658,2.467,4.452,2.264s3.435-1.08,5.174-1.566,3.825-.492,5.1.783c.595.592.939,1.39,1.478,2.033a8.551,8.551,0,0,0,3.262,2.079c6.974,3.068,16.446,8.224,23.42,11.292l2.07-3.734c-5.9-4.6-14.307-11.3-20.211-15.9-2.9-2.26-6.269-2.891-8.894-5.74-3.155,1.935-7.3,3.963-11.153,2.769-1.388-.43-2.66-1.392-4.112-1.339-2.132.077-3.5,2.207-4.655,4" transform="translate(-34.861 -76.007)" fill="#f9f3ae"/>
  <path id="パス_233" data-name="パス 233" d="M106.75,127.806c1.818-9.6,10.082-14.416,19.587-13.111,8.874,1.219,11.721,8.624,12.217,16.558q.345,5.518.266,11.053c-.028,1.94-.143,4.021-1.321,5.563-2.139,2.8-6.406,2.368-9.858,1.655-1.092-1.938-.115-4.439,1.382-6.084s3.468-2.818,4.89-4.528,2.174-4.344.837-6.121c-.851-1.131-2.3-1.606-3.44-2.444-2.612-1.921-3.388-5.553-5.767-7.755a9.894,9.894,0,0,0-8.062-2.1,29.3,29.3,0,0,0-8.106,2.811Z" transform="translate(-44.991 -48.252)" fill="#58c1df"/>
  <path id="パス_234" data-name="パス 234" d="M148.739,111.491a33.13,33.13,0,0,0-6.22-2.871,3.818,3.818,0,0,1,6.981,1.372Z" transform="translate(-60.067 -45.035)" fill="#f5da47"/>
  <path id="パス_235" data-name="パス 235" d="M111.117,165.556a9.188,9.188,0,0,0,2.024,4.684c1.222,1.218,3.523,1.513,4.566.138a4.945,4.945,0,0,0-2.7-1.991Z" transform="translate(-46.832 -69.776)" fill="#f5da47"/>
  <path id="パス_236" data-name="パス 236" d="M118.266,197.753c-1.787,7.026-1.994,14.29-2.246,21.565l13.757-.087c.737,0,11.3-.449,11.314-.418a32.115,32.115,0,0,1-2.577-15.882,11.217,11.217,0,0,1-6.937-6.948,8.165,8.165,0,0,1-12.818-.021q-.264.894-.492,1.792" transform="translate(-48.898 -82.591)" fill="#58c1df"/>
  <path id="パス_237" data-name="パス 237" d="M118.563,165.42a.984.984,0,0,1-.758-1.611,1.479,1.479,0,0,0,.3-1.305,3.034,3.034,0,0,0-1.74-1.55c-3.336-.889-5.529-1.473-8.121-4.259-3.539-3.8-3.027-10.708-2.643-13.5a.984.984,0,0,1,1.95.268c-.72,5.235.078,9.68,2.134,11.892,2.206,2.37,3.97,2.841,7.172,3.693a4.9,4.9,0,0,1,3.14,2.915,3.449,3.449,0,0,1-.673,3.1.982.982,0,0,1-.759.358" transform="translate(-44.392 -59.994)" fill="#221714"/>
  <path id="パス_238" data-name="パス 238" d="M143.94,170.14a.983.983,0,0,1-.791-.4,6.867,6.867,0,0,1-.737-6.342,8.14,8.14,0,0,1,5.5-5.239.984.984,0,1,1,.519,1.9,6.174,6.174,0,0,0-4.163,3.984,4.912,4.912,0,0,0,.458,4.528.984.984,0,0,1-.79,1.57" transform="translate(-59.835 -66.645)" fill="#221714"/>
  <path id="パス_239" data-name="パス 239" d="M113.907,141.23a1.218,1.218,0,1,1-1.084-1.339,1.22,1.22,0,0,1,1.084,1.339" transform="translate(-46.983 -58.956)" fill="#221714"/>
  <path id="パス_240" data-name="パス 240" d="M134.375,140.651a1.218,1.218,0,1,1-1.084-1.34,1.219,1.219,0,0,1,1.084,1.34" transform="translate(-55.61 -58.712)" fill="#221714"/>
  <path id="パス_241" data-name="パス 241" d="M119.129,150.355a2.316,2.316,0,0,1-1.541-.485,1.616,1.616,0,0,1-.535-1.4.984.984,0,0,1,1.949-.09,2.461,2.461,0,0,0,.684-.062.984.984,0,1,1,.431,1.92,4.612,4.612,0,0,1-.988.113m-1.1-1.8.98.087h0Z" transform="translate(-49.331 -62.198)" fill="#221714"/>
  <path id="パス_242" data-name="パス 242" d="M104.232,150.478a.991.991,0,0,1-.276-.039c-2.489-.726-3.425-3.478-2.893-5.72.463-1.949,1.9-3.047,3.574-2.741a.984.984,0,0,1-.358,1.935c-.89-.172-1.221.924-1.3,1.261-.27,1.138.026,2.937,1.53,3.376a.984.984,0,0,1-.275,1.929" transform="translate(-42.534 -59.818)" fill="#221714"/>
  <path id="パス_243" data-name="パス 243" d="M149.788,150.876a.984.984,0,0,1-.084-1.964,3.422,3.422,0,0,0,3.2-2.081,2.918,2.918,0,0,0-.62-2.993,2.8,2.8,0,0,0-3.1-.356.984.984,0,1,1-.7-1.839,4.717,4.717,0,0,1,5.181.789,4.879,4.879,0,0,1,1.1,5.064,5.343,5.343,0,0,1-4.886,3.377c-.029,0-.058,0-.086,0" transform="translate(-62.314 -59.521)" fill="#221714"/>
  <path id="パス_244" data-name="パス 244" d="M120.4,160.482c-2.035,0-4.622-1.443-5.224-5.513a.82.82,0,0,1,.668-.927c2.387-.422,7.522-.4,9.307.208a.82.82,0,0,1,.548.9c-.539,3.666-3.124,5.336-5.3,5.337Zm-3.437-4.942c.529,2.032,1.824,3.3,3.437,3.3h0c1.4,0,2.95-1,3.528-3.2a30.943,30.943,0,0,0-6.966-.1" transform="translate(-48.54 -64.803)" fill="#221714"/>
  <path id="パス_245" data-name="パス 245" d="M136.939,146.872a.985.985,0,0,1-.747-1.625,11.392,11.392,0,0,0,2.293-8.189c-.116-1.461-.174-2.974-.235-4.576-.215-5.626-.458-12-3.6-16.359a15.463,15.463,0,0,0-9.443-6.191,16.158,16.158,0,0,0-11.759,2.567,16.809,16.809,0,0,0-6.461,15.209.984.984,0,0,1-1.956.219,18.808,18.808,0,0,1,7.248-17.011A18.253,18.253,0,0,1,125.552,108a17.473,17.473,0,0,1,10.688,6.976c3.495,4.839,3.751,11.532,3.976,17.436.06,1.58.117,3.074.23,4.493a13.2,13.2,0,0,1-2.76,9.626.981.981,0,0,1-.747.344" transform="translate(-44.217 -45.405)" fill="#221714"/>
  <path id="パス_246" data-name="パス 246" d="M109.471,168.3a.984.984,0,0,1-.836-.463,12.754,12.754,0,0,1-1.9-6.526.984.984,0,0,1,.966-1h.018a.985.985,0,0,1,.984.967,10.772,10.772,0,0,0,1.6,5.519.985.985,0,0,1-.315,1.356.974.974,0,0,1-.52.149" transform="translate(-44.984 -67.564)" fill="#221714"/>
  <path id="パス_247" data-name="パス 247" d="M116.94,118.74c-.027,0-.053,0-.08,0a.984.984,0,0,1-.9-1.059c.326-4.068,3.346-8.784,8.3-9.512a.984.984,0,1,1,.286,1.947c-3.949.58-6.362,4.412-6.627,7.722a.984.984,0,0,1-.979.906" transform="translate(-48.871 -45.584)" fill="#221714"/>
  <path id="パス_248" data-name="パス 248" d="M148.854,111.266a.984.984,0,0,1-.823-1.522c1.64-2.51.776-3.876-.016-4.685a3.688,3.688,0,0,0-3.622-.9,2.629,2.629,0,0,0-1.866,2.5.984.984,0,1,1-1.943-.313,4.592,4.592,0,0,1,3.213-4.058,5.651,5.651,0,0,1,5.623,1.4c1.347,1.375,2.484,3.729.257,7.137a.982.982,0,0,1-.824.446" transform="translate(-59.246 -43.004)" fill="#221714"/>
  <path id="パス_249" data-name="パス 249" d="M106.762,136.352a.985.985,0,0,1-.805-1.549,19.827,19.827,0,0,0,2.487-5.964.984.984,0,1,1,1.924.411,21.492,21.492,0,0,1-2.8,6.682.983.983,0,0,1-.806.419" transform="translate(-44.582 -53.973)" fill="#221714"/>
  <path id="パス_250" data-name="パス 250" d="M147.193,137.088a.987.987,0,0,1-.43-.1c-2.382-1.16-5.252-7.343-5.634-9.408a.984.984,0,1,1,1.935-.358c.369,1.992,3.107,7.288,4.561,8a.984.984,0,0,1-.432,1.869" transform="translate(-59.474 -53.281)" fill="#221714"/>
  <path id="パス_251" data-name="パス 251" d="M124.711,118.813a.984.984,0,0,1-.984-.977,11.062,11.062,0,0,1,5.965-9.586.984.984,0,1,1,.93,1.734,9.075,9.075,0,0,0-4.927,7.838.984.984,0,0,1-.977.991Z" transform="translate(-52.147 -45.575)" fill="#221714"/>
  <path id="パス_252" data-name="パス 252" d="M138.379,119.679a.984.984,0,0,1-.984-.982c0-.51-.014-1.007-.028-1.5a14.056,14.056,0,0,1,.832-6.34.984.984,0,1,1,1.812.768,12.348,12.348,0,0,0-.677,5.517c.014.505.028,1.019.029,1.547a.985.985,0,0,1-.982.986Z" transform="translate(-57.883 -46.471)" fill="#221714"/>
  <path id="パス_253" data-name="パス 253" d="M128.862,180.967c-2.654,0-4.079-1.06-5.763-2.536a.984.984,0,1,1,1.3-1.48c1.673,1.467,2.7,2.142,4.9,2.038a14.237,14.237,0,0,0,6.267-1.865.983.983,0,0,1,.786-.924l.675-.139a.984.984,0,0,1,.926,1.627c-1.767,1.934-5.727,3.126-8.556,3.266q-.273.013-.529.013" transform="translate(-51.741 -74.194)" fill="#221714"/>
  <path id="パス_254" data-name="パス 254" d="M83.961,205.918a1.043,1.043,0,0,1-.175-.016.985.985,0,0,1-.65-.431l-3.081-4.726a.984.984,0,0,1,.633-1.5,4.009,4.009,0,0,0,.24-.929c.042-.231.084-.458.137-.666a6.309,6.309,0,0,1,2.882-3.366c.942-.652,1.964-1.279,3.047-1.942,2.832-1.736,5.761-3.531,7.375-5.871a24.811,24.811,0,0,1,2.845-3.258c.661-.673,1.286-1.309,1.861-2a12.7,12.7,0,0,1,6.572-4.147.984.984,0,1,1,.482,1.909,10.72,10.72,0,0,0-5.545,3.5c-.625.747-1.307,1.442-1.966,2.112a23.066,23.066,0,0,0-2.628,3c-1.85,2.683-5.1,4.675-7.966,6.432-1.059.649-2.058,1.261-2.955,1.882-.978.677-1.875,1.356-2.094,2.228-.042.168-.075.352-.109.538a4.289,4.289,0,0,1-.638,1.808l1.989,3.05,1.148-.848a.985.985,0,0,1,1.215.036,2.72,2.72,0,0,0,2.8.086,10.286,10.286,0,0,0,2.694-2.193l.177-.178a56.859,56.859,0,0,1,5.7-4.806c.636-.49,1.269-.979,1.892-1.472a.984.984,0,0,1,1.223,1.541c-.629.5-1.27.994-1.913,1.49a55.586,55.586,0,0,0-5.5,4.632l-.175.177a11.9,11.9,0,0,1-3.244,2.585,4.824,4.824,0,0,1-4.244.09l-1.439,1.062a.982.982,0,0,1-.584.193" transform="translate(-33.673 -74.615)" fill="#221714"/>
  <path id="パス_255" data-name="パス 255" d="M174.6,205.285c-.03,0-.061,0-.091,0a.983.983,0,0,1-.83-.631,4.16,4.16,0,0,0-1.029-1.541,4.123,4.123,0,0,1-3.031.312c-.778-.2-2.124-1.144-4.5-2.925-.418-.315-.76-.572-.956-.707a43.559,43.559,0,0,0-4.445-2.6c-.674-.358-1.353-.72-2.04-1.1a39.8,39.8,0,0,1-5.67-4.065c-.161-.132-.3-.242-.417-.331,0,.307.011.664.021,1l-1.967.058c-.051-1.771-.082-2.841.832-3.288.876-.43,1.778.218,2.782,1.043a37.484,37.484,0,0,0,5.383,3.869c.673.378,1.34.732,2,1.084a45.865,45.865,0,0,1,4.639,2.713c.209.145.574.418,1.02.753a29.447,29.447,0,0,0,3.811,2.595,1.952,1.952,0,0,0,1.855-.337.985.985,0,0,1,1.251-.126,6.127,6.127,0,0,1,1.394,1.3c.5-.849,1.022-1.712,1.577-2.539a6.828,6.828,0,0,0-.993-.444.984.984,0,0,1-.548-1.853.344.344,0,0,0,.141-.208,1.009,1.009,0,0,0-.084-.73,4.23,4.23,0,0,0-1.59-1.3c-1.506-.887-9.2-5.489-12.665-8.978-.887-.892-1.715-1.825-2.517-2.728a28.043,28.043,0,0,0-5.653-5.3,9.4,9.4,0,0,0-2.863-1.332c-.2-.053-.4-.1-.6-.145a5.567,5.567,0,0,1-2.876-1.329.984.984,0,1,1,1.372-1.41,3.793,3.793,0,0,0,1.946.821c.219.05.44.1.663.16a11.3,11.3,0,0,1,3.428,1.582,29.942,29.942,0,0,1,6.059,5.648c.783.883,1.593,1.8,2.44,2.647,2.558,2.573,8.208,6.279,12.268,8.67a5.854,5.854,0,0,1,2.312,2.046,2.969,2.969,0,0,1,.252,2.235c.347.166.756.379,1.246.644l.168.091a.984.984,0,0,1,.334,1.457c-.8,1.081-1.535,2.319-2.246,3.516-.248.417-.495.833-.744,1.243a.984.984,0,0,1-.841.472m.96-6.02h0" transform="translate(-61.384 -73.24)" fill="#221714"/>
  <path id="パス_256" data-name="パス 256" d="M140.2,219.184a.984.984,0,0,1-.971-.837c-.415-2.739-.975-5.511-1.517-8.193l-.21-1.039c-.256-1.27-.544-2.75-.738-4.248-.014-.107-.031-.293-.052-.528a14.28,14.28,0,0,0-.344-2.445,13.737,13.737,0,0,1-4.2-3.332,14.126,14.126,0,0,1-1.87-2.872,13.026,13.026,0,0,1-8.491,1.724,7.328,7.328,0,0,1-4.083-1.982l-.09.212a23.185,23.185,0,0,0-2.167,6.918l-.938,14.178a.984.984,0,0,1-1.964-.13l.938-14.178a24.551,24.551,0,0,1,2.32-7.563c.263-.614.519-1.213.749-1.787a.985.985,0,0,1,.865-.618,1,1,0,0,1,.922.531,4.993,4.993,0,0,0,3.773,2.477,10.515,10.515,0,0,0,8.146-2.233.984.984,0,0,1,1.594,1.071,13.905,13.905,0,0,0,1.794,2.978,11.752,11.752,0,0,0,3.785,2.948c.783.381,1,1.47,1.218,3.928.017.2.031.357.043.448.186,1.435.467,2.875.716,4.113l.209,1.037c.546,2.7,1.111,5.5,1.534,8.288a.984.984,0,0,1-.826,1.12,1,1,0,0,1-.149.012" transform="translate(-47.443 -81.118)" fill="#221714"/>
  <path id="パス_257" data-name="パス 257" d="M120.448,188.558a.984.984,0,0,1-.949-.726,7.794,7.794,0,0,1,3.933-8.769.984.984,0,0,1,.878,1.762,5.848,5.848,0,0,0-2.912,6.491.984.984,0,0,1-.691,1.208,1,1,0,0,1-.259.034" transform="translate(-50.262 -75.426)" fill="#221714"/>
  <path id="パス_258" data-name="パス 258" d="M144.137,189.681a.984.984,0,0,1-.978-.889,11.9,11.9,0,0,1,4.775-10.6.984.984,0,0,1,1.155,1.593,9.9,9.9,0,0,0-3.971,8.817.984.984,0,0,1-.884,1.074.911.911,0,0,1-.1.005" transform="translate(-60.315 -75.022)" fill="#221714"/>
  <path id="パス_259" data-name="パス 259" d="M65.619,221.71a.8.8,0,0,1-.147-.013c-.221-.04-.447-.079-.674-.117-2.351-.4-5.277-.9-6.138-4A.82.82,0,0,1,60,216.753c.55.134,2.668.221,10.351-.4.411-.034.7-.057.826-.065a.82.82,0,0,1,.1,1.637c-.12.007-.4.03-.8.062-5.022.408-7.872.542-9.5.492.849.865,2.253,1.175,4.09,1.487.233.039.465.079.692.12a.82.82,0,0,1-.146,1.627m-5.38-4.571v0" transform="translate(-24.711 -91.156)" fill="#221714"/>
  <path id="パス_260" data-name="パス 260" d="M68.561,226.465a22.13,22.13,0,0,1-3-.2.82.82,0,0,1-.217-1.564l5.268-2.3a.82.82,0,1,1,.655,1.5l-2.089.911a20.788,20.788,0,0,0,6.539-1.261.82.82,0,1,1,.566,1.539,22.431,22.431,0,0,1-7.725,1.371" transform="translate(-27.334 -93.706)" fill="#221714"/>
  <path id="パス_261" data-name="パス 261" d="M206.613,230.185a.828.828,0,0,1-.321-.065l-4.344-1.847a11.111,11.111,0,0,1-3.052-1.712,4.29,4.29,0,0,1-1.592-3.542.82.82,0,1,1,1.633.155,2.744,2.744,0,0,0,1.037,2.152,9.749,9.749,0,0,0,2.616,1.437l1.837.782a18.664,18.664,0,0,0-2.482-1.942.82.82,0,1,1,.931-1.35c1.564,1.078,3.706,2.555,4.51,4.839a.82.82,0,0,1-.773,1.092" transform="translate(-83.151 -93.682)" fill="#221714"/>
  <path id="パス_262" data-name="パス 262" d="M213.181,221.141h-.027a53.1,53.1,0,0,1-12.271-1.841.82.82,0,1,1,.431-1.582,51.455,51.455,0,0,0,11.892,1.783.82.82,0,0,1-.025,1.64" transform="translate(-84.411 -91.748)" fill="#221714"/>
  <path id="パス_263" data-name="パス 263" d="M217.056,226.6a.823.823,0,0,1-.216-.03l-4.7-1.28a.82.82,0,1,1,.432-1.582l4.7,1.28a.82.82,0,0,1-.215,1.611" transform="translate(-89.155 -94.272)" fill="#221714"/>
  <path id="パス_264" data-name="パス 264" d="M214.812,229.782a.822.822,0,0,1-.4-.108l-2.652-1.511a.82.82,0,1,1,.811-1.425l2.653,1.511a.82.82,0,0,1-.407,1.533" transform="translate(-89.073 -95.517)" fill="#221714"/>
  <path id="パス_265" data-name="パス 265" d="M271.709,93.467c-2.553-4.417-8.547-5.85-13.491-4.591s-9.058,4.606-12.893,7.972a13.442,13.442,0,0,0-2.959,3.255c-2.024,3.53.045,5.063,2.962,6.037,3.828,1.279,1.265,2.072,1.234,6a2.62,2.62,0,0,0-3.1,1.679c-.81,2.6,4.611,8.795,6.353,10.432a28.177,28.177,0,0,0,7.455,4.531,4.1,4.1,0,0,0-2.366,6.03q-3.666,7.247-6.675,14.8c-1.656.659-3.57-.264-4.761-1.59a38.813,38.813,0,0,1-2.9-4.485c-1-1.476-2.476-2.831-4.257-2.894a4.472,4.472,0,0,0-4.2,3.507,7.318,7.318,0,0,0,1.243,5.622c1.962,2.984,5.124,4.522,7.492,7.016,2.665,2.806,5.364,5.025,9.52,4.768a50.426,50.426,0,0,0,.322,12.287l24.359.67a3,3,0,0,0,2.512-.718,2.959,2.959,0,0,0,.478-1.539l.887-7.582a13.308,13.308,0,0,0,2.727-.517c4.9-1.952,4.994-9.5,4.546-13.978a24.855,24.855,0,0,0-1.327-5.91c-.667-1.862-1.7-2.867-2.833-4.44-1.894-2.637-2.717-5.922-4.592-8.572s-5.614-4.569-8.348-2.818l5.027-9.453a4.154,4.154,0,0,0,3.271-4.9,14.067,14.067,0,0,0-1.941-20.579Z" transform="translate(-97.763 -37.274)" fill="#fff"/>
  <path id="パス_266" data-name="パス 266" d="M262.315,107.259c-2.566.323-5.133.53-7.88.7-2.194.137-4.422.846-6.5-.184.38-2.283.845-5.143,2.594-6.835,1.577-1.524,3.838-1.616,5.582-2.89a29.8,29.8,0,0,1,7.172-4.134c3.32-1.22,7.211-1.38,10.257.417,1.5.883,2.8,2.112,4.551,2.452,1.86.36,3.64.383,5.183,1.707a8.865,8.865,0,0,1,2.6,5.342A13.458,13.458,0,0,1,285.5,111a1.752,1.752,0,0,1-.749,1.075,2.192,2.192,0,0,1-1.577-.149,6.2,6.2,0,0,0-3.216-.119,4.46,4.46,0,0,1-1.857.255c-1.258-.255-1.84-1.735-2.691-2.544a6.937,6.937,0,0,0-3.7-2.053c-.648-.053-1.3.1-1.947,0s-1.313-.582-1.284-1.231c-2.113.441-4.142.77-6.171,1.026" transform="translate(-104.498 -39.193)" fill="#58c1df"/>
  <path id="パス_267" data-name="パス 267" d="M262.862,164.967a51.668,51.668,0,0,0-4.042,10.587c-.919,3.523-1.689,6.982-3.612,10.143a42.181,42.181,0,0,1-4.428-1.625,14.266,14.266,0,0,0-3.1,6.231,38.75,38.75,0,0,1,4.375,2.739,15.641,15.641,0,0,0,4.581,2.714,30.426,30.426,0,0,0,0,6.072c.094.543.916,4.838.264,4.841l27.867-.1c-1.329-2.108-1.785-8.588.923-9.785a6.073,6.073,0,0,0,1.774-.933,2.982,2.982,0,0,0,.529-3.189,8.762,8.762,0,0,0-1.981-2.771c-1.193-1.276-2.586-2.417-3.717-3.711-1.343-1.537-2.495-3.3-3.726-4.926a5.258,5.258,0,0,1-2.783,1.586,9.477,9.477,0,0,1-5.438-1.761,5.093,5.093,0,0,1-2.032-4.84,5.418,5.418,0,0,1,2.9-3.951c-.817-.592-9.119-5.829-8.354-7.317" transform="translate(-104.389 -69.528)" fill="#58c1df"/>
  <path id="パス_268" data-name="パス 268" d="M281.681,165.264c-1.458.852-2.913,1.716-4.354,2.628.274,1.052,1.657,1.412,2.7,1.114a27.623,27.623,0,0,0,2.915-1.445c2.787-1.167,4.693,1.484,6,3.5,1.707,2.637,2.911,5.584,4.734,8.142a11.364,11.364,0,0,1,1.681,2.738c.919,2.645-.193,5.586.487,8.318.747,3,3.368,4.92,6.315,2.923a6.471,6.471,0,0,0,2.54-4.138,13.845,13.845,0,0,0-.094-4.953,32.311,32.311,0,0,0-2.289-8.574c-2.136-4.525-6.857-7.139-9.219-11.553-.12-.225-.235-.522-.067-.714s.467-.123.7-.042l2.786.953c-1.08-2.682-4.492-4.713-7.36-3.763-2.259.75-5.269,3.574-7.48,4.865" transform="translate(-116.884 -67.503)" fill="#f9f3ae"/>
  <path id="パス_269" data-name="パス 269" d="M270.239,150.059l-.05,0a.983.983,0,0,1-.933-1.032c.1-2.01-.975-2.4-3.045-2.975-.376-.1-.752-.208-1.111-.327a11.905,11.905,0,0,1-5.987-3.9c-2.24-2.937-3.113-7.343-2.594-13.1a.984.984,0,0,1,1.961.176c-.474,5.248.266,9.193,2.2,11.727a10.032,10.032,0,0,0,5.04,3.221c.329.109.673.2,1.017.3,1.97.545,4.67,1.291,4.485,4.97a.984.984,0,0,1-.982.935" transform="translate(-108.053 -53.878)" fill="#221714"/>
  <path id="パス_270" data-name="パス 270" d="M264.994,125.959a1.286,1.286,0,1,1-1.208-1.358,1.288,1.288,0,0,1,1.208,1.358" transform="translate(-110.603 -52.514)" fill="#221714"/>
  <path id="パス_271" data-name="パス 271" d="M286.541,124.337a1.286,1.286,0,1,1-1.209-1.359,1.287,1.287,0,0,1,1.209,1.359" transform="translate(-119.684 -51.83)" fill="#221714"/>
  <path id="パス_272" data-name="パス 272" d="M270.8,135.32a2.277,2.277,0,0,1-1.434-.428,1.655,1.655,0,0,1-.612-1.4.984.984,0,0,1,1.951-.141,2.473,2.473,0,0,0,.778-.1.984.984,0,1,1,.518,1.9,4.712,4.712,0,0,1-1.2.17" transform="translate(-113.272 -55.865)" fill="#221714"/>
  <path id="パス_273" data-name="パス 273" d="M255.341,136.344a1,1,0,0,1-.231-.028c-2.628-.635-3.737-3.458-3.292-5.822.386-2.047,1.82-3.258,3.571-3.023a.984.984,0,1,1-.267,1.95c-.987-.136-1.3,1.066-1.37,1.438-.233,1.233.178,3.149,1.819,3.545a.984.984,0,0,1-.23,1.941" transform="translate(-106.092 -53.712)" fill="#221714"/>
  <path id="パス_274" data-name="パス 274" d="M303.29,134.523a.984.984,0,0,1-.13-1.959,3.661,3.661,0,0,0,3.32-2.39,3.138,3.138,0,0,0-.817-3.181,3.011,3.011,0,0,0-3.345-.231.984.984,0,1,1-.789-1.8,4.925,4.925,0,0,1,5.442.565,5.092,5.092,0,0,1,1.39,5.227,5.587,5.587,0,0,1-4.94,3.763.933.933,0,0,1-.132.009" transform="translate(-126.836 -52.434)" fill="#221714"/>
  <path id="パス_275" data-name="パス 275" d="M256.768,113.687a.984.984,0,0,1-.643-1.727,1.992,1.992,0,0,1,.422-.281.983.983,0,0,1,.768-.045c4.246-.69,10.207-3.409,11.362-7.776a.984.984,0,0,1,1.9.5c-1.534,5.8-9.215,8.8-13.7,9.321a.968.968,0,0,1-.115.006" transform="translate(-107.804 -43.463)" fill="#221714"/>
  <path id="パス_276" data-name="パス 276" d="M284.532,114.275a.984.984,0,0,1-.444-1.862,12.506,12.506,0,0,0,4.305-3.815.984.984,0,1,1,1.656,1.062,14.516,14.516,0,0,1-5.074,4.51.983.983,0,0,1-.443.106" transform="translate(-119.505 -45.579)" fill="#221714"/>
  <path id="パス_277" data-name="パス 277" d="M285.173,113.307a.984.984,0,0,1-.64-1.731c3.156-2.706,2.79-6.86,2.016-10.567-.618-2.963-3.154-8.368-8.312-7.624a.988.988,0,0,1-.929-.385,8.781,8.781,0,0,0-5.809-3.476c-6.433-.784-12.235,2.135-13.893,3.587-.942.824-1.791,1.663-2.611,2.476a25.084,25.084,0,0,1-6.4,5.047.984.984,0,1,1-.895-1.752,23.552,23.552,0,0,0,5.915-4.694c.842-.833,1.712-1.694,2.7-2.558,1.945-1.7,8.275-4.931,15.428-4.06a10.743,10.743,0,0,1,6.792,3.8c5.422-.428,8.937,4.4,9.946,9.234.839,4.021,1.3,9.071-2.662,12.463a.977.977,0,0,1-.639.237" transform="translate(-104.169 -36.846)" fill="#221714"/>
  <path id="パス_278" data-name="パス 278" d="M272.481,145.405a5.858,5.858,0,0,1-5.708-5.156.82.82,0,0,1,.627-.943c2.553-.576,8.057-.817,9.979-.265a.821.821,0,0,1,.59.869c-.363,3.667-2.919,5.4-5.29,5.491-.065,0-.131,0-.2,0m-3.9-4.655a4.074,4.074,0,0,0,4.034,3.012,3.856,3.856,0,0,0,3.6-3.277,34.161,34.161,0,0,0-7.639.264" transform="translate(-112.43 -58.47)" fill="#221714"/>
  <path id="パス_279" data-name="パス 279" d="M248.241,113.3a.983.983,0,0,1-.033-1.966,14,14,0,0,0,9.033-3.937.984.984,0,1,1,1.334,1.446,15.937,15.937,0,0,1-10.3,4.457h-.034" transform="translate(-104.21 -45.152)" fill="#221714"/>
  <path id="パス_280" data-name="パス 280" d="M295.918,152.393a.984.984,0,0,1-.984-.978c-.02-3.231,1.624-6.381,4.63-8.868a.984.984,0,0,1,1.254,1.517c-2.542,2.1-3.932,4.709-3.916,7.338a.984.984,0,0,1-.978.99Z" transform="translate(-124.305 -59.983)" fill="#221714"/>
  <path id="パス_281" data-name="パス 281" d="M298.138,165.124a2.247,2.247,0,0,1-1.609-.867c-2.6-2.834-5.161-2.067-9.125-.583l-.8.3a.984.984,0,1,1-.679-1.848l.794-.3c3.394-1.272,7.218-2.7,10.7.522-.694-2.22-2.952-5.083-5.022-5.083h-.047c-4.831.1-8.357,2.809-11.84,5.818a.985.985,0,0,1-1.339-.049,6.562,6.562,0,0,1-1.848-3.711.984.984,0,1,1,1.949-.272,4.575,4.575,0,0,0,.717,1.889c3.417-2.883,7.224-5.537,12.322-5.642,3.685-.072,7.1,4.854,7.284,7.991a1.758,1.758,0,0,1-.507,1.465,1.406,1.406,0,0,1-.94.363" transform="translate(-116.874 -65.455)" fill="#221714"/>
  <path id="パス_282" data-name="パス 282" d="M273.437,166.8a.968.968,0,0,1-.251-.033,5.119,5.119,0,0,1-3.732-2.911,3.363,3.363,0,0,1,.457-3.088,2.57,2.57,0,0,1,2.236-1.13.983.983,0,0,1,.933,1.032.972.972,0,0,1-1.032.933.693.693,0,0,0-.546.324,1.388,1.388,0,0,0-.207,1.233,3.494,3.494,0,0,0,2.392,1.7.984.984,0,0,1-.25,1.936" transform="translate(-113.485 -67.278)" fill="#221714"/>
  <path id="パス_283" data-name="パス 283" d="M266.322,175.287a1,1,0,0,1-.27-.038.984.984,0,0,1-.677-1.216,14.131,14.131,0,0,1,3.174-5.727.984.984,0,1,1,1.461,1.318,12.205,12.205,0,0,0-2.742,4.948.985.985,0,0,1-.946.715" transform="translate(-111.83 -70.798)" fill="#221714"/>
  <path id="パス_284" data-name="パス 284" d="M264.2,219.637a.985.985,0,0,1-.963-.786c-1-4.849-.536-12.659-.166-18.936.068-1.149.132-2.241.183-3.246a.971.971,0,0,1,1.032-.933.983.983,0,0,1,.933,1.032c-.051,1.01-.116,2.108-.185,3.262-.363,6.161-.815,13.829.13,18.425a.984.984,0,0,1-.766,1.162,1.02,1.02,0,0,1-.2.02" transform="translate(-110.694 -82.495)" fill="#221714"/>
  <path id="パス_285" data-name="パス 285" d="M289.732,184.3a6.351,6.351,0,0,1-5.389-9.946,2.068,2.068,0,0,1-.557-1.976,3.034,3.034,0,0,1,2.607-2,6.3,6.3,0,0,1,7.067,5.442,6.14,6.14,0,0,0,1.221,3.35.984.984,0,0,1-1.533,1.235A8.061,8.061,0,0,1,291.5,176a4.34,4.34,0,0,0-4.784-3.683c-.539.09-.965.332-1.037.59,0,0,.014.01.028.025a.984.984,0,0,1,1.01,1.658,4.421,4.421,0,0,0,4.22,7.56.984.984,0,1,1,.591,1.877,5.959,5.959,0,0,1-1.8.272" transform="translate(-119.388 -71.778)" fill="#221714"/>
  <path id="パス_286" data-name="パス 286" d="M303.927,196.986a7.788,7.788,0,0,1-1.631-.176c-5.179-1.106-9.648-7-11.167-10.83a4.425,4.425,0,0,1-.379-2.933c.2-.654,1-1.371,4.485-4.04.779-.6,1.734-1.327,2.029-1.6a.985.985,0,0,1,1.673-.04l0,0,3.7,5.675a.984.984,0,1,1-1.648,1.076l-3.071-4.705c-.4.322-.929.723-1.493,1.155a40.8,40.8,0,0,0-3.82,3.134,3.145,3.145,0,0,0,.347,1.55c1.573,3.966,5.748,8.777,9.749,9.631a5.538,5.538,0,0,0,5.246-1.647,9.3,9.3,0,0,0,2.463-5.588c.979-8.356-3.418-16.773-11.475-21.966a.984.984,0,1,1,1.067-1.654c8.693,5.6,13.43,14.742,12.363,23.849a11.228,11.228,0,0,1-3.045,6.768,7.63,7.63,0,0,1-5.4,2.338" transform="translate(-122.488 -69.067)" fill="#221714"/>
  <path id="パス_287" data-name="パス 287" d="M239.5,194.663a.986.986,0,0,1-.811-.423,8.823,8.823,0,0,0-3.293-2.426c-1.75-.93-3.733-1.984-4.618-4.223a8.35,8.35,0,0,1,.109-5.033,5.668,5.668,0,0,1,1.251-2.725,2.9,2.9,0,0,1,2.036-.868h0a2.228,2.228,0,0,1,1.616.657.984.984,0,1,1-1.41,1.373.3.3,0,0,0-.207-.061.944.944,0,0,0-.625.27,4.062,4.062,0,0,0-.751,1.818,6.6,6.6,0,0,0-.19,3.846c.618,1.565,2.121,2.363,3.711,3.209a10.42,10.42,0,0,1,3.988,3.044.984.984,0,0,1-.808,1.544" transform="translate(-97.116 -75.427)" fill="#221714"/>
  <path id="パス_288" data-name="パス 288" d="M254.434,202.086a10.789,10.789,0,0,1-6.742-2.518c-.174-.138-.57-.514-1.313-1.224-.685-.653-1.925-1.837-2.3-2.133a.984.984,0,0,1-.18-1.7h0a5.819,5.819,0,0,1,2.009-.814,2.705,2.705,0,0,0,1.689-.837c.61-.844.522-3.388-.154-4.465h0a.984.984,0,0,1,1.51-1.237,10.334,10.334,0,0,0,1.211.32,7.088,7.088,0,0,1,.732.184c.529.182,1.021.347,1.541.474a36.508,36.508,0,0,0,2.241-6.057c.073-.231.125-.395.15-.467a.984.984,0,1,1,1.862.635c-.023.067-.069.215-.135.424-2.226,7.058-2.931,7.7-4.027,7.5a15.928,15.928,0,0,1-2.272-.649c-.086-.029-.238-.062-.419-.1a6.546,6.546,0,0,1-.642,4.594A4.49,4.49,0,0,1,246.4,195.6l-.045.012c.441.411.938.886,1.384,1.312.469.448,1.052,1,1.172,1.1a8.878,8.878,0,0,0,5.526,2.1h.086a.984.984,0,0,1,.01,1.968Zm-9.4-5.977a.989.989,0,0,1-.323.151.969.969,0,0,0,.323-.151m4.066-8.77v0" transform="translate(-102.62 -76.26)" fill="#221714"/>
  <path id="パス_289" data-name="パス 289" d="M244.918,187.58a.978.978,0,0,1-.571-.183c-1.826-1.3-2.384-3.379-2.79-4.894-.449-1.671-1.854-2.98-3.508-4.4a2.5,2.5,0,0,0-.637-.45l-.011,0a.548.548,0,0,0,.077.165,3.386,3.386,0,0,0,.546.546c.182.159.363.318.528.492a5.49,5.49,0,0,1,1.381,3.5,14.193,14.193,0,0,1-.329,3.351.985.985,0,0,1-.5.691,2.623,2.623,0,0,1-2.723-.324.984.984,0,0,1,1.029-1.678,3.872,3.872,0,0,0,.389.215,9.883,9.883,0,0,0,.17-2.145,3.532,3.532,0,0,0-.841-2.249c-.123-.13-.26-.247-.4-.365a4.978,4.978,0,0,1-.868-.905,2.146,2.146,0,0,1,.15-2.8,2.034,2.034,0,0,1,2.069-.339,4.037,4.037,0,0,1,1.246.805c1.471,1.26,3.485,2.985,4.129,5.38.443,1.649.873,2.975,2.032,3.8a.984.984,0,0,1-.572,1.785" transform="translate(-99.221 -74.038)" fill="#221714"/>
  <path id="パス_290" data-name="パス 290" d="M311.672,229.057a.984.984,0,0,1-.931-.665c-.6-1.755-.371-8.455-.218-9.854a.984.984,0,0,1,1.956.214c-.184,1.687-.288,7.8.124,9a.984.984,0,0,1-.931,1.3" transform="translate(-130.802 -91.737)" fill="#221714"/>
  <rect id="長方形_35" data-name="長方形 35" width="294.667" height="220.059" fill="none"/>
</svg>
